<?xml version="1.0" encoding="UTF-8"?>
<svg width="330px" height="127px" viewBox="0 0 330 127" version="1.1" xmlns="http://www.w3.org/2000/svg" xmlns:xlink="http://www.w3.org/1999/xlink">
    <!-- Generator: Sketch 46.2 (44496) - http://www.bohemiancoding.com/sketch -->
    <title>banner_text</title>
    <desc>Created with Sketch.</desc>
    <defs></defs>
    <g id="Page-1" stroke="none" stroke-width="1" fill="none" fill-rule="evenodd">
        <g id="Desktop-HD" transform="translate(-650.000000, -202.000000)">
            <g id="banner_text" transform="translate(650.000000, 202.000000)">
                <path d="M41.908,25.04 L40.9,26.048 C40.216,25.436 39.172,24.68 38.056,23.996 C36.868,24.932 35.644,25.76 34.492,26.408 C34.276,26.156 33.7,25.688 33.34,25.436 C34.564,24.824 35.752,24.104 36.832,23.312 C35.896,22.772 34.924,22.268 33.988,21.908 L34.924,20.972 C35.896,21.404 36.904,21.908 37.948,22.412 C38.668,21.8 39.316,21.116 39.856,20.432 L41.188,20.792 C40.576,21.584 39.892,22.34 39.064,23.096 C40.18,23.744 41.188,24.464 41.908,25.04 Z M41.944,31.412 L40.936,32.42 C40.216,31.736 39.208,30.944 38.056,30.152 C36.796,31.16 35.5,31.988 34.276,32.672 C34.06,32.42 33.484,31.88 33.16,31.664 C34.42,31.052 35.68,30.296 36.832,29.432 C35.896,28.82 34.888,28.28 33.916,27.812 L34.888,26.948 C35.86,27.38 36.904,27.92 37.948,28.532 C38.704,27.848 39.424,27.164 39.964,26.444 L41.332,26.876 C40.684,27.704 39.964,28.496 39.1,29.252 C40.216,29.972 41.26,30.728 41.944,31.412 Z M24.556,34.292 L24.556,38.936 L22.9,38.936 L22.9,32.816 L25.852,32.816 L25.132,22.052 C27.148,21.728 30.172,20.9 31.936,20.432 L32.8,21.584 C31.144,22.196 28.804,22.664 26.86,22.988 L27.004,25.22 L32.62,25.22 L32.62,26.588 L27.112,26.588 L27.256,29 L32.836,29 L32.836,30.368 L27.364,30.368 L27.508,32.816 L48.424,32.816 C48.532,32.06 48.604,31.268 48.712,30.368 L42.916,30.368 L42.916,29 L48.82,29 C48.892,28.208 48.964,27.416 49,26.588 L43.096,26.588 L43.096,25.22 L49.108,25.22 C49.144,24.428 49.216,23.636 49.252,22.88 L42.952,22.88 L42.952,21.476 L50.944,21.476 C50.764,25.004 50.44,29.684 50.116,32.816 L52.996,32.816 L52.996,38.936 L51.268,38.936 L51.268,34.292 L24.556,34.292 Z M53.86,43.724 L53.86,45.272 L39.028,45.272 L39.028,50.42 C39.028,51.536 38.74,51.968 37.84,52.256 C36.904,52.544 35.176,52.508 32.224,52.508 C32.116,52.04 31.828,51.5 31.612,51.032 C34.06,51.104 36.076,51.104 36.58,51.068 C37.192,51.032 37.336,50.888 37.336,50.42 L37.336,45.272 L22,45.272 L22,43.724 L37.336,43.724 L37.336,41.816 C39.676,41.096 42.268,39.908 44.212,38.756 L28.516,38.756 L28.516,37.316 L46.192,37.316 L46.588,37.208 L47.704,38.072 C45.436,39.872 42.052,41.492 39.028,42.572 L39.028,43.724 L53.86,43.724 Z M83.228,42.356 L66.92,42.356 L66.92,45.38 L83.228,45.38 L83.228,42.356 Z M66.92,49.808 L83.228,49.808 L83.228,46.784 L66.92,46.784 L66.92,49.808 Z M65.228,52.58 L65.228,40.952 L84.992,40.952 L84.992,52.436 L83.228,52.436 L83.228,51.212 L66.92,51.212 L66.92,52.58 L65.228,52.58 Z M79.772,37.208 L78.512,36.668 C79.268,35.444 80.312,33.464 80.888,32.204 L82.4,32.852 C81.572,34.4 80.564,36.092 79.772,37.208 Z M67.316,32.888 L68.648,32.348 C69.728,33.644 70.808,35.336 71.204,36.56 L69.8,37.172 C69.44,35.984 68.36,34.184 67.316,32.888 Z M64.616,31.664 L64.616,37.568 L74.048,37.568 L74.048,31.664 L64.616,31.664 Z M85.1,37.568 L85.1,31.664 L75.596,31.664 L75.596,37.568 L85.1,37.568 Z M63.032,38.936 L63.032,30.296 L86.72,30.296 L86.72,38.936 L63.032,38.936 Z M69.26,26.696 L80.852,26.696 C78.62,25.4 76.532,23.924 74.948,22.304 C73.328,23.996 71.384,25.436 69.26,26.696 Z M74.912,20 L76.46,20.54 C76.28,20.756 76.136,21.008 75.956,21.224 C79.376,24.788 85.892,27.956 91.436,29.36 C91.04,29.684 90.572,30.296 90.32,30.764 C87.404,29.9 84.128,28.568 81.212,26.912 L81.212,28.1 L68.756,28.1 L68.756,26.984 C65.912,28.64 62.78,29.972 59.684,30.98 C59.468,30.656 58.892,29.936 58.568,29.576 C65.048,27.74 71.492,24.464 74.912,20 Z M34.312,77.096 L25.024,77.096 L25.024,80.66 L34.312,80.66 L34.312,77.096 Z M25.024,85.88 L34.312,85.88 L34.312,82.064 L25.024,82.064 L25.024,85.88 Z M35.968,87.32 L25.024,87.32 L25.024,106.652 L23.332,106.652 L23.332,75.656 L35.968,75.656 L35.968,87.32 Z M34.708,95.96 L40.72,95.96 L40.72,91.352 L34.708,91.352 L34.708,95.96 Z M47.74,97.544 L42.34,97.544 L42.34,105.932 L40.72,105.932 L40.72,97.544 L34.672,97.544 C34.492,99.884 33.412,103.88 29.704,106.328 C29.416,106.004 28.876,105.5 28.48,105.248 C31.936,103.124 32.908,99.74 33.088,97.544 L28.084,97.544 L28.084,95.96 L33.124,95.96 L33.124,91.352 L28.804,91.352 L28.804,89.84 L46.876,89.84 L46.876,91.352 L42.34,91.352 L42.34,95.96 L47.74,95.96 L47.74,97.544 Z M41.296,85.88 L50.908,85.88 L50.908,82.064 L41.296,82.064 L41.296,85.88 Z M50.908,77.096 L41.296,77.096 L41.296,80.66 L50.908,80.66 L50.908,77.096 Z M52.6,75.656 L52.6,103.988 C52.6,105.32 52.276,105.968 51.34,106.256 C50.404,106.544 48.64,106.58 45.904,106.58 C45.832,106.112 45.616,105.284 45.328,104.78 C47.56,104.816 49.504,104.816 50.116,104.78 C50.728,104.78 50.908,104.564 50.908,104.024 L50.908,87.356 L39.64,87.356 L39.64,75.656 L52.6,75.656 Z M62.96,96.86 L71.636,96.86 C71.636,96.86 71.6,97.436 71.528,97.652 C71.024,102.764 70.628,104.816 69.728,105.572 C69.188,106.076 68.648,106.256 67.64,106.256 C66.776,106.328 64.832,106.292 62.888,106.184 C62.852,105.68 62.636,105.068 62.348,104.636 C64.436,104.816 66.488,104.852 67.136,104.852 C67.82,104.852 68.18,104.816 68.432,104.528 C69.044,103.988 69.476,102.332 69.872,98.336 L61.124,98.336 C61.52,96.32 62.024,93.26 62.312,90.92 L69.908,90.92 L69.908,86.348 L63.464,86.348 L63.464,85.988 C61.988,86.78 60.512,87.428 59.036,87.896 C58.82,87.464 58.388,86.888 58.028,86.564 C60.584,85.772 63.284,84.476 65.66,82.82 C64.616,81.632 62.852,80.156 61.232,79.112 L62.312,78.14 C63.932,79.148 65.84,80.66 66.92,81.884 C68.612,80.48 70.052,78.932 71.06,77.204 L62.06,77.204 L62.06,75.656 L72.068,75.656 L72.392,75.584 L73.436,76.16 C71.78,79.832 68.828,82.712 65.408,84.872 L71.528,84.872 L71.528,92.396 L63.608,92.396 C63.428,93.908 63.176,95.528 62.96,96.86 Z M86.468,95.096 L87.476,95.564 C86.36,98.192 84.56,100.352 82.4,102.08 C84.452,103.412 86.36,104.636 87.692,105.608 L86.792,106.76 C85.388,105.716 83.444,104.384 81.212,102.944 C78.692,104.672 75.776,105.86 72.824,106.688 C72.68,106.256 72.32,105.68 71.996,105.356 C74.696,104.708 77.468,103.628 79.88,102.08 C77.828,100.784 75.704,99.524 73.832,98.408 L74.696,97.508 C76.676,98.624 78.908,99.92 81.068,101.252 C82.796,99.956 84.236,98.372 85.28,96.572 L73.508,96.572 L73.508,95.168 L86.18,95.168 L86.468,95.096 Z M88.844,77.888 L90.14,78.788 C88.556,80.336 86.396,81.956 84.596,83.144 C86.648,84.404 88.916,85.412 91.328,86.024 C90.968,86.384 90.536,86.996 90.284,87.392 C88.232,86.78 86.288,85.916 84.452,84.872 L84.452,90.704 C84.452,91.496 84.56,91.712 85.1,91.712 L88.34,91.712 C88.772,91.712 89.564,91.676 89.996,91.604 C89.996,92 90.068,92.504 90.104,92.9 C89.744,92.972 89.024,92.972 88.376,92.972 L84.956,92.972 C83.264,92.972 82.904,92.36 82.904,90.668 L82.904,86.276 L77.036,86.276 L77.036,87.788 C77.036,89.948 76.28,92.396 73.112,94.124 C72.86,93.836 72.32,93.26 71.96,93.044 C74.912,91.496 75.488,89.516 75.488,87.752 L75.488,84.8 L83.624,84.8 L83.624,84.836 L84.416,84.836 C80.204,82.352 76.784,78.752 74.768,74.504 L76.208,74.036 C77,75.764 78.08,77.384 79.412,78.824 C81.176,77.564 83.444,75.656 84.704,74.252 L86.036,75.188 C84.38,76.808 82.148,78.572 80.348,79.832 C81.284,80.732 82.256,81.596 83.372,82.316 C85.208,81.092 87.476,79.22 88.844,77.888 Z M125.376,77.204 L118.824,77.204 C118.248,83.072 115.908,86.6 111.696,88.94 C111.444,88.652 110.724,88.04 110.364,87.788 C114.504,85.808 116.556,82.532 117.096,77.204 L111.444,77.204 L111.444,75.62 L127.104,75.62 C127.104,75.62 127.104,76.196 127.068,76.484 C126.708,83.216 126.348,85.7 125.592,86.528 C125.088,87.032 124.584,87.248 123.684,87.248 C122.928,87.32 121.38,87.284 119.796,87.176 C119.76,86.708 119.58,86.096 119.328,85.628 C120.984,85.808 122.532,85.808 123.036,85.808 C123.612,85.808 123.972,85.772 124.188,85.484 C124.728,84.908 125.088,82.82 125.376,77.204 Z M114.432,91.1 L114.432,99.02 L124.656,99.02 L124.656,91.1 L114.432,91.1 Z M112.776,100.568 L112.776,89.552 L126.348,89.552 L126.348,100.568 L112.776,100.568 Z M104.64,94.52 L104.64,102.584 C106.908,103.628 109.896,103.988 113.892,103.988 C115.116,103.988 126.924,103.988 128.544,103.952 C128.22,104.384 127.86,105.176 127.752,105.68 L113.964,105.68 C105.612,105.68 101.436,104.24 98.916,98.696 C98.52,101.828 97.8,104.564 96.576,106.688 C96.288,106.508 95.568,105.968 95.208,105.752 C97.368,102.152 97.728,96.572 97.872,90.092 L99.528,90.2 C99.456,92 99.384,93.728 99.276,95.384 C100.14,98.264 101.292,100.244 103.02,101.576 L103.02,87.068 L95.964,87.068 L95.964,85.448 L102.66,85.448 L102.66,80.336 L96.648,80.336 L96.648,78.752 L102.66,78.752 L102.66,74 L104.316,74 L104.316,78.752 L110.292,78.752 L110.292,80.336 L104.316,80.336 L104.316,85.448 L111.084,85.448 L111.084,87.068 L104.64,87.068 L104.64,92.9 L110.796,92.9 L110.796,94.52 L104.64,94.52 Z M164.536,84.764 L163.24,85.736 C162.808,85.016 162.196,84.08 161.476,83.144 C148.228,84.296 146.932,84.44 146.14,84.764 C146.068,84.404 145.78,83.54 145.564,83.144 C146.104,83.036 146.716,82.46 147.436,81.596 C148.228,80.732 150.82,77.42 152.44,74.216 L154.204,74.72 C152.368,77.744 150.28,80.624 148.3,82.82 L160.432,81.776 C159.424,80.516 158.38,79.292 157.372,78.248 L158.632,77.456 C160.828,79.724 163.348,82.82 164.536,84.764 Z M134.872,92.108 C135.124,90.272 135.412,88.04 135.664,85.952 L143.836,85.952 L143.836,75.98 L133.18,75.98 L133.18,77.636 L142.18,77.636 L142.18,84.332 L134.224,84.332 C133.936,87.284 133.396,91.244 132.928,93.728 L142.396,93.728 C141.892,100.82 141.388,103.592 140.668,104.348 C140.38,104.672 140.02,104.708 139.408,104.708 C138.832,104.708 137.176,104.672 135.448,104.528 C135.772,104.96 135.916,105.644 135.952,106.112 C137.572,106.256 139.156,106.292 139.984,106.22 C140.956,106.184 141.532,106.004 142.072,105.428 C143.08,104.348 143.584,101.36 144.124,92.972 C144.16,92.72 144.196,92.108 144.196,92.108 L134.872,92.108 Z M147.796,95.708 L153.7,95.708 L153.7,89.696 L147.796,89.696 L147.796,95.708 Z M161.548,89.696 L155.392,89.696 L155.392,95.708 L161.548,95.708 L161.548,89.696 Z M165.328,106.076 L163.816,106.868 C163.528,106.112 163.06,105.248 162.52,104.276 C156.112,104.852 149.452,105.392 144.88,105.68 L144.592,103.952 C147.004,103.808 150.172,103.592 153.7,103.34 L153.7,97.256 L146.212,97.256 L146.212,88.148 L153.7,88.148 L153.7,84.296 L155.392,84.296 L155.392,88.148 L163.168,88.148 L163.168,97.256 L155.392,97.256 L155.392,103.268 C157.408,103.124 159.532,102.98 161.62,102.8 C160.792,101.54 159.856,100.208 158.92,99.128 L160.36,98.408 C162.376,100.784 164.464,103.952 165.328,106.076 Z M201.248,78.356 L189.584,78.356 C188.756,79.832 187.784,81.272 186.74,82.748 L186.74,106.58 L184.94,106.58 L184.94,84.98 C181.124,89.552 176.3,93.584 170.936,96.464 C170.648,96.068 170.108,95.384 169.784,95.06 C177.164,91.208 183.752,84.872 187.46,78.356 L170.54,78.356 L170.54,76.628 L201.248,76.628 L201.248,78.356 Z M188.252,86.168 L189.476,85.052 C193.904,87.752 199.376,91.712 202.076,94.448 L200.78,95.744 C198.152,93.044 192.716,88.94 188.252,86.168 Z M216,95.672 L219.96,95.672 L219.96,90.704 L216,90.704 L216,95.672 Z M210.6,90.704 L210.6,92.612 C210.6,93.548 210.564,94.592 210.528,95.672 L214.596,95.672 L214.596,90.704 L210.6,90.704 Z M217.044,78.608 L212.4,78.608 C211.752,80.192 211.032,81.668 210.276,83.036 L215.028,83.036 C215.748,81.776 216.504,80.084 217.044,78.608 Z M216,84.512 L216,89.264 L219.96,89.264 L219.96,84.512 L216,84.512 Z M210.6,84.512 L210.6,89.264 L214.596,89.264 L214.596,84.512 L210.6,84.512 Z M221.508,83.036 L221.508,104.384 C221.508,105.428 221.22,106.004 220.392,106.292 C219.6,106.544 218.16,106.544 215.496,106.544 C215.388,106.148 215.1,105.464 214.884,105.032 C216.972,105.104 218.736,105.104 219.24,105.068 C219.744,105.032 219.96,104.888 219.96,104.384 L219.96,97.148 L210.42,97.148 C210.132,100.46 209.376,103.988 207.684,106.652 C207.432,106.4 206.748,106.004 206.352,105.86 C208.8,102.008 209.088,96.644 209.088,92.612 L209.088,84.908 C208.656,85.556 208.224,86.132 207.756,86.672 C207.468,86.384 206.748,85.844 206.316,85.628 C208.944,82.784 210.996,78.464 212.148,73.964 L213.84,74.36 C213.588,75.296 213.264,76.232 212.94,77.132 L217.8,77.132 L218.088,77.024 L219.132,77.744 C218.52,79.508 217.584,81.488 216.684,83.036 L221.508,83.036 Z M236.592,77.384 L229.968,77.384 C229.14,81.704 227.268,85.376 222.84,87.392 C222.588,87.032 222.12,86.492 221.76,86.24 C225.864,84.476 227.556,81.092 228.276,77.384 L222.876,77.384 L222.876,75.8 L238.284,75.8 C238.284,75.8 238.284,76.376 238.248,76.592 C237.924,82.712 237.6,84.944 236.844,85.736 C236.412,86.24 235.908,86.456 235.008,86.456 C234.324,86.528 232.74,86.492 231.228,86.384 C231.192,85.916 231.012,85.268 230.796,84.908 C232.416,85.016 233.928,85.052 234.432,85.052 C234.972,85.052 235.296,85.016 235.512,84.728 C236.016,84.188 236.304,82.316 236.592,77.384 Z M239.292,97.58 L239.292,99.2 L231.984,99.2 L231.984,106.4 L230.292,106.4 L230.292,99.2 L222.192,99.2 L222.192,97.58 L230.292,97.58 L230.292,92.504 L225.72,92.504 C225.108,94.016 224.388,95.348 223.596,96.464 C223.272,96.248 222.516,95.852 222.084,95.672 C223.74,93.548 224.964,90.488 225.612,87.356 L227.268,87.68 C227.016,88.796 226.692,89.912 226.332,90.956 L230.292,90.956 L230.292,86.996 L231.984,86.996 L231.984,90.956 L238.68,90.956 L238.68,92.504 L231.984,92.504 L231.984,97.58 L239.292,97.58 Z M251.272,88.832 L251.272,90.812 C252.424,91.748 255.304,94.592 256.024,95.312 L255.124,96.716 C254.368,95.816 252.604,93.908 251.272,92.612 L251.272,106.652 L249.688,106.652 L249.688,90.74 C248.32,94.952 246.196,99.668 244.324,102.26 C244.108,101.828 243.676,101.18 243.352,100.82 C245.296,98.192 247.672,93.08 248.896,88.832 L243.676,88.832 L243.676,87.284 L249.688,87.284 L249.688,77.168 C247.852,77.492 245.944,77.672 244.252,77.816 C244.18,77.42 243.928,76.88 243.712,76.484 C247.78,76.124 252.892,75.404 255.304,74.144 L256.636,75.404 C255.268,76.016 253.36,76.556 251.272,76.952 L251.272,87.284 L256.96,87.284 L256.96,88.832 L251.272,88.832 Z M244.72,79.508 L246.088,79.112 C246.844,81.164 247.564,83.864 247.816,85.628 L246.34,86.06 C246.124,84.296 245.44,81.56 244.72,79.508 Z M254.044,86.348 L252.748,85.808 C253.54,83.864 254.476,80.552 254.908,78.356 L256.6,78.968 C255.772,81.38 254.872,84.44 254.044,86.348 Z M264.412,76.808 L264.412,81.308 L268.192,81.308 L268.192,76.808 L264.412,76.808 Z M263.008,81.308 L263.008,76.808 L259.408,76.808 L259.408,81.308 L263.008,81.308 Z M269.56,76.808 L269.56,81.308 L273.412,81.308 L273.412,76.808 L269.56,76.808 Z M276.076,89.588 L276.112,91.028 L270.928,91.028 L272.224,91.568 C271.576,92.9 270.856,94.376 270.208,95.492 L274.348,95.492 L274.348,96.968 L267.148,96.968 L267.148,99.992 L275.428,99.992 L275.428,101.432 L267.148,101.432 L267.148,106.652 L265.528,106.652 L265.528,101.432 L257.536,101.432 L257.536,99.992 L265.528,99.992 L265.528,96.968 L258.472,96.968 L258.472,95.492 L262.432,95.492 C262.18,94.412 261.532,92.792 260.92,91.604 L262.216,91.064 C262.936,92.324 263.62,93.98 263.872,95.096 L262.936,95.492 L268.66,95.492 C269.38,94.268 270.208,92.324 270.64,91.028 L256.6,91.028 L256.6,89.588 L265.528,89.588 L265.528,86.672 L258.976,86.672 L258.976,85.232 L265.528,85.232 L265.528,82.712 L257.896,82.712 L257.896,75.404 L274.96,75.404 L274.96,82.712 L267.148,82.712 L267.148,85.232 L273.952,85.232 L273.952,86.672 L267.148,86.672 L267.148,89.588 L276.076,89.588 Z M283.412,96.68 L284.96,96.68 L285.212,80.3 L285.248,77.276 L283.088,77.276 L283.124,80.3 L283.412,96.68 Z M284.168,104.456 C285.14,104.456 286.004,103.7 286.004,102.512 C286.004,101.288 285.14,100.532 284.168,100.532 C283.232,100.532 282.332,101.288 282.332,102.512 C282.332,103.7 283.232,104.456 284.168,104.456 Z M295.032,96.68 L296.58,96.68 L296.832,80.3 L296.868,77.276 L294.708,77.276 L294.744,80.3 L295.032,96.68 Z M295.788,104.456 C296.76,104.456 297.624,103.7 297.624,102.512 C297.624,101.288 296.76,100.532 295.788,100.532 C294.852,100.532 293.952,101.288 293.952,102.512 C293.952,103.7 294.852,104.456 295.788,104.456 Z" id="學會-Bootstrap-4-開發超強不" fill="#4A4A4A"></path>
                <rect id="Rectangle-21" stroke="#4A4A4A" stroke-width="2" x="1" y="1" width="328" height="125"></rect>
                <path d="M106.532,34.7 L112.94,34.7 C113.972005,34.7 114.865996,34.4180028 115.622,33.854 C116.378004,33.2899972 116.756,32.4440056 116.756,31.316 C116.756,30.307995 116.486003,29.6180019 115.946,29.246 C115.405997,28.8739981 114.680005,28.688 113.768,28.688 L107.792,28.688 L106.532,34.7 Z M103.256,24.296 L114.056,24.296 C115.352006,24.296 116.515995,24.3799992 117.548,24.548 C118.580005,24.7160008 119.455996,25.0219978 120.176,25.466 C120.896004,25.9100022 121.447998,26.5219961 121.832,27.302 C122.216002,28.0820039 122.408,29.0839939 122.408,30.308 C122.408,31.0280036 122.300001,31.7299966 122.084,32.414 C121.867999,33.0980034 121.550002,33.7099973 121.13,34.25 C120.709998,34.7900027 120.206003,35.2399982 119.618,35.6 C119.029997,35.9600018 118.352004,36.1879995 117.584,36.284 L117.584,36.356 C118.808006,36.6920017 119.749997,37.3339953 120.41,38.282 C121.070003,39.2300047 121.4,40.3279938 121.4,41.576 C121.4,42.968007 121.130003,44.1919947 120.59,45.248 C120.049997,46.3040053 119.324005,47.1799965 118.412,47.876 C117.499995,48.5720035 116.456006,49.0999982 115.28,49.46 C114.103994,49.8200018 112.868006,50 111.572,50 L97.892,50 L103.256,24.296 Z M104.228,45.608 L111.32,45.608 C112.616006,45.608 113.677996,45.2600035 114.506,44.564 C115.334004,43.8679965 115.748,42.8360068 115.748,41.468 C115.748,40.7959966 115.610001,40.2680019 115.334,39.884 C115.057999,39.4999981 114.704002,39.206001 114.272,39.002 C113.839998,38.797999 113.360003,38.6720002 112.832,38.624 C112.303997,38.5759998 111.788003,38.552 111.284,38.552 L105.74,38.552 L104.228,45.608 Z M130.464,42.476 C130.464,43.0280028 130.541999,43.5559975 130.698,44.06 C130.854001,44.5640025 131.087998,45.0079981 131.4,45.392 C131.712002,45.7760019 132.095998,46.0819989 132.552,46.31 C133.008002,46.5380011 133.535997,46.652 134.136,46.652 C135.096005,46.652 135.917997,46.3940026 136.602,45.878 C137.286003,45.3619974 137.849998,44.7140039 138.294,43.934 C138.738002,43.1539961 139.067999,42.3080046 139.284,41.396 C139.500001,40.4839954 139.608,39.632004 139.608,38.84 C139.608,37.5919938 139.326003,36.5960037 138.762,35.852 C138.197997,35.1079963 137.232007,34.736 135.864,34.736 C134.927995,34.736 134.118003,34.9939974 133.434,35.51 C132.749997,36.0260026 132.192002,36.6679962 131.76,37.436 C131.327998,38.2040038 131.004001,39.0379955 130.788,39.938 C130.571999,40.8380045 130.464,41.683996 130.464,42.476 Z M125.352,42.476 C125.352,40.8919921 125.597998,39.398007 126.09,37.994 C126.582002,36.589993 127.289995,35.3600053 128.214,34.304 C129.138005,33.2479947 130.259993,32.4140031 131.58,31.802 C132.900007,31.1899969 134.387992,30.884 136.044,30.884 C137.316006,30.884 138.485995,31.0459984 139.554,31.37 C140.622005,31.6940016 141.539996,32.1799968 142.308,32.828 C143.076004,33.4760032 143.669998,34.2919951 144.09,35.276 C144.510002,36.2600049 144.72,37.4239933 144.72,38.768 C144.72,40.4000082 144.474002,41.9299929 143.982,43.358 C143.489998,44.7860071 142.776005,46.0279947 141.84,47.084 C140.903995,48.1400053 139.770007,48.967997 138.438,49.568 C137.105993,50.168003 135.588009,50.468 133.884,50.468 C131.291987,50.468 129.222008,49.8020067 127.674,48.47 C126.125992,47.1379933 125.352,45.1400133 125.352,42.476 Z M152.812,42.476 C152.812,43.0280028 152.889999,43.5559975 153.046,44.06 C153.202001,44.5640025 153.435998,45.0079981 153.748,45.392 C154.060002,45.7760019 154.443998,46.0819989 154.9,46.31 C155.356002,46.5380011 155.883997,46.652 156.484,46.652 C157.444005,46.652 158.265997,46.3940026 158.95,45.878 C159.634003,45.3619974 160.197998,44.7140039 160.642,43.934 C161.086002,43.1539961 161.415999,42.3080046 161.632,41.396 C161.848001,40.4839954 161.956,39.632004 161.956,38.84 C161.956,37.5919938 161.674003,36.5960037 161.11,35.852 C160.545997,35.1079963 159.580007,34.736 158.212,34.736 C157.275995,34.736 156.466003,34.9939974 155.782,35.51 C155.097997,36.0260026 154.540002,36.6679962 154.108,37.436 C153.675998,38.2040038 153.352001,39.0379955 153.136,39.938 C152.919999,40.8380045 152.812,41.683996 152.812,42.476 Z M147.7,42.476 C147.7,40.8919921 147.945998,39.398007 148.438,37.994 C148.930002,36.589993 149.637995,35.3600053 150.562,34.304 C151.486005,33.2479947 152.607993,32.4140031 153.928,31.802 C155.248007,31.1899969 156.735992,30.884 158.392,30.884 C159.664006,30.884 160.833995,31.0459984 161.902,31.37 C162.970005,31.6940016 163.887996,32.1799968 164.656,32.828 C165.424004,33.4760032 166.017998,34.2919951 166.438,35.276 C166.858002,36.2600049 167.068,37.4239933 167.068,38.768 C167.068,40.4000082 166.822002,41.9299929 166.33,43.358 C165.837998,44.7860071 165.124005,46.0279947 164.188,47.084 C163.251995,48.1400053 162.118007,48.967997 160.786,49.568 C159.453993,50.168003 157.936009,50.468 156.232,50.468 C153.639987,50.468 151.570008,49.8020067 150.022,48.47 C148.473992,47.1379933 147.7,45.1400133 147.7,42.476 Z M179.696,31.388 L180.848,25.736 L175.736,25.736 L174.584,31.388 L171.308,31.388 L170.516,34.808 L173.864,34.808 L171.776,44.78 C171.704,45.1160017 171.644,45.4339985 171.596,45.734 C171.548,46.0340015 171.524,46.3039988 171.524,46.544 C171.5,47.3120038 171.625999,47.9359976 171.902,48.416 C172.178001,48.8960024 172.549998,49.2739986 173.018,49.55 C173.486002,49.8260014 174.013997,50.0179995 174.602,50.126 C175.190003,50.2340005 175.783997,50.288 176.384,50.288 C176.936003,50.288 177.475997,50.2700002 178.004,50.234 C178.532003,50.1979998 179.059997,50.1560002 179.588,50.108 L180.452,46.184 C179.851997,46.2560004 179.240003,46.292 178.616,46.292 C178.423999,46.292 178.226001,46.2860001 178.022,46.274 C177.817999,46.2619999 177.632001,46.2080005 177.464,46.112 C177.295999,46.0159995 177.158001,45.8780009 177.05,45.698 C176.941999,45.5179991 176.888,45.2600017 176.888,44.924 C176.888,44.8519996 176.9,44.7380008 176.924,44.582 C176.948,44.4259992 176.984,44.252001 177.032,44.06 L178.94,34.808 L182.576,34.808 L183.368,31.388 L179.696,31.388 Z M196.68,36.824 L201.432,36.824 C201.456,35.623994 201.264002,34.6400038 200.856,33.872 C200.447998,33.1039962 199.890004,32.4980022 199.182,32.054 C198.473996,31.6099978 197.652005,31.3040008 196.716,31.136 C195.779995,30.9679992 194.808005,30.884 193.8,30.884 C192.911996,30.884 191.982005,30.985999 191.01,31.19 C190.037995,31.394001 189.144004,31.7299977 188.328,32.198 C187.511996,32.6660023 186.846003,33.2719963 186.33,34.016 C185.813997,34.7600037 185.556,35.6839945 185.556,36.788 C185.556,37.5320037 185.645999,38.1559975 185.826,38.66 C186.006001,39.1640025 186.269998,39.5959982 186.618,39.956 C186.966002,40.3160018 187.385998,40.6159988 187.878,40.856 C188.370002,41.0960012 188.939997,41.3239989 189.588,41.54 L193.512,42.8 C194.064003,42.992001 194.507998,43.2199987 194.844,43.484 C195.180002,43.7480013 195.348,44.2039968 195.348,44.852 C195.348,45.2840022 195.252001,45.6379986 195.06,45.914 C194.867999,46.1900014 194.616002,46.4179991 194.304,46.598 C193.991998,46.7780009 193.644002,46.9039996 193.26,46.976 C192.875998,47.0480004 192.492002,47.084 192.108,47.084 C191.675998,47.084 191.238002,47.0300005 190.794,46.922 C190.349998,46.8139995 189.954002,46.658001 189.606,46.454 C189.257998,46.249999 188.976001,45.9920016 188.76,45.68 C188.543999,45.3679984 188.436,44.9960022 188.436,44.564 L188.436,43.952 L183.72,43.952 L183.72,44.708 C183.72,45.8120055 183.959998,46.7299963 184.44,47.462 C184.920002,48.1940037 185.537996,48.7819978 186.294,49.226 C187.050004,49.6700022 187.895995,49.987999 188.832,50.18 C189.768005,50.372001 190.691995,50.468 191.604,50.468 C192.684005,50.468 193.751995,50.3600011 194.808,50.144 C195.864005,49.9279989 196.811996,49.5680025 197.652,49.064 C198.492004,48.5599975 199.169997,47.906004 199.686,47.102 C200.202003,46.297996 200.46,45.3200058 200.46,44.168 C200.46,43.3999962 200.334001,42.7280029 200.082,42.152 C199.829999,41.5759971 199.482002,41.0780021 199.038,40.658 C198.593998,40.2379979 198.078003,39.8840014 197.49,39.596 C196.901997,39.3079986 196.260003,39.0560011 195.564,38.84 L193.008,38.012 C192.143996,37.7479987 191.538002,37.4720014 191.19,37.184 C190.841998,36.8959986 190.668,36.548002 190.668,36.14 C190.668,35.4679966 190.961997,34.9940014 191.55,34.718 C192.138003,34.4419986 192.887995,34.304 193.8,34.304 C194.808005,34.304 195.533998,34.5259978 195.978,34.97 C196.422002,35.4140022 196.656,36.031996 196.68,36.824 Z M213.7,31.388 L214.852,25.736 L209.74,25.736 L208.588,31.388 L205.312,31.388 L204.52,34.808 L207.868,34.808 L205.78,44.78 C205.708,45.1160017 205.648,45.4339985 205.6,45.734 C205.552,46.0340015 205.528,46.3039988 205.528,46.544 C205.504,47.3120038 205.629999,47.9359976 205.906,48.416 C206.182001,48.8960024 206.553998,49.2739986 207.022,49.55 C207.490002,49.8260014 208.017997,50.0179995 208.606,50.126 C209.194003,50.2340005 209.787997,50.288 210.388,50.288 C210.940003,50.288 211.479997,50.2700002 212.008,50.234 C212.536003,50.1979998 213.063997,50.1560002 213.592,50.108 L214.456,46.184 C213.855997,46.2560004 213.244003,46.292 212.62,46.292 C212.427999,46.292 212.230001,46.2860001 212.026,46.274 C211.821999,46.2619999 211.636001,46.2080005 211.468,46.112 C211.299999,46.0159995 211.162001,45.8780009 211.054,45.698 C210.945999,45.5179991 210.892,45.2600017 210.892,44.924 C210.892,44.8519996 210.904,44.7380008 210.928,44.582 C210.952,44.4259992 210.988,44.252001 211.036,44.06 L212.944,34.808 L216.58,34.808 L217.372,31.388 L213.7,31.388 Z M221.468,31.388 L226.328,31.388 L225.572,34.736 L225.644,34.808 C226.220003,33.5119935 227.089994,32.5340033 228.254,31.874 C229.418006,31.2139967 230.683993,30.884 232.052,30.884 C232.580003,30.884 233.107997,30.9199996 233.636,30.992 L232.592,35.96 L231.512,35.744 C231.151998,35.6719996 230.792002,35.636 230.432,35.636 C229.447995,35.636 228.614003,35.8039983 227.93,36.14 C227.245997,36.4760017 226.670002,36.9319971 226.202,37.508 C225.733998,38.0840029 225.362001,38.7379963 225.086,39.47 C224.809999,40.2020037 224.588001,40.963996 224.42,41.756 L222.692,50 L217.616,50 L221.468,31.388 Z M235.176,37.04 C235.344001,35.8639941 235.703997,34.8860039 236.256,34.106 C236.808003,33.3259961 237.479996,32.6960024 238.272,32.216 C239.064004,31.7359976 239.951995,31.394001 240.936,31.19 C241.920005,30.985999 242.939995,30.884 243.996,30.884 C244.836004,30.884 245.711995,30.9439994 246.624,31.064 C247.536005,31.1840006 248.375996,31.4179983 249.144,31.766 C249.912004,32.1140017 250.541998,32.6059968 251.034,33.242 C251.526002,33.8780032 251.76,34.7239947 251.736,35.78 C251.736,36.6680044 251.604001,37.711994 251.34,38.912 L249.684,46.4 C249.588,46.7360017 249.522,47.1499975 249.486,47.642 C249.45,48.1340025 249.432,48.5599982 249.432,48.92 C249.432,49.2320016 249.491999,49.591998 249.612,50 L244.5,50 L244.5,48.164 C243.803997,48.956004 242.952005,49.5379981 241.944,49.91 C240.935995,50.2820019 239.892005,50.468 238.812,50.468 C237.803995,50.468 236.922004,50.3360013 236.166,50.072 C235.409996,49.8079987 234.780003,49.4540022 234.276,49.01 C233.771997,48.5659978 233.400001,48.0500029 233.16,47.462 C232.919999,46.8739971 232.8,46.2560032 232.8,45.608 C232.8,43.807991 233.417994,42.3680054 234.654,41.288 C235.890006,40.2079946 237.635989,39.5360013 239.892,39.272 C241.092006,39.1279993 242.135996,39.0200004 243.024,38.948 C243.912004,38.8759996 244.649997,38.7620008 245.238,38.606 C245.826003,38.4499992 246.263999,38.2220015 246.552,37.922 C246.840001,37.6219985 246.984,37.172003 246.984,36.572 C246.984,36.0919976 246.876001,35.7080014 246.66,35.42 C246.443999,35.1319986 246.174002,34.9040008 245.85,34.736 C245.525998,34.5679992 245.178002,34.4540003 244.806,34.394 C244.433998,34.3339997 244.080002,34.304 243.744,34.304 C242.831995,34.304 242.016004,34.5259978 241.296,34.97 C240.575996,35.4140022 240.132001,36.1039953 239.964,37.04 L235.176,37.04 Z M245.976,41.072 C245.327997,41.4560019 244.632004,41.6899996 243.888,41.774 C243.143996,41.8580004 242.400004,41.9239998 241.656,41.972 C241.175998,42.0200002 240.708002,42.0979995 240.252,42.206 C239.795998,42.3140005 239.394002,42.4759989 239.046,42.692 C238.697998,42.9080011 238.416001,43.2019981 238.2,43.574 C237.983999,43.9460019 237.876,44.4199971 237.876,44.996 C237.876,45.6920035 238.157997,46.2139983 238.722,46.562 C239.286003,46.9100017 239.939996,47.084 240.684,47.084 C241.476004,47.084 242.141997,46.9580013 242.682,46.706 C243.222003,46.4539987 243.677998,46.130002 244.05,45.734 C244.422002,45.337998 244.715999,44.8880025 244.932,44.384 C245.148001,43.8799975 245.327999,43.3760025 245.472,42.872 L245.976,41.072 Z M257.92,31.388 L262.852,31.388 L262.348,33.692 L262.42,33.764 C262.996003,32.755995 263.781995,32.0240023 264.778,31.568 C265.774005,31.1119977 266.847994,30.884 268,30.884 C270.256011,30.884 271.995994,31.5439934 273.22,32.864 C274.444006,34.1840066 275.056,35.9719887 275.056,38.228 C275.056,39.7640077 274.852002,41.2639927 274.444,42.728 C274.035998,44.1920073 273.412004,45.4999942 272.572,46.652 C271.731996,47.8040058 270.682006,48.7279965 269.422,49.424 C268.161994,50.1200035 266.668009,50.468 264.94,50.468 C264.411997,50.468 263.878003,50.4080006 263.338,50.288 C262.797997,50.1679994 262.294002,49.9880012 261.826,49.748 C261.357998,49.5079988 260.938002,49.2020019 260.566,48.83 C260.193998,48.4579981 259.912001,48.0200025 259.72,47.516 L259.612,47.516 L257.668,56.516 L252.592,56.516 L257.92,31.388 Z M266.308,34.736 C265.347995,34.736 264.520003,34.9939974 263.824,35.51 C263.127997,36.0260026 262.546002,36.679996 262.078,37.472 C261.609998,38.264004 261.262001,39.1219954 261.034,40.046 C260.805999,40.9700046 260.692,41.827996 260.692,42.62 C260.692,43.8440061 260.991997,44.8219963 261.592,45.554 C262.192003,46.2860037 263.115994,46.652 264.364,46.652 C265.348005,46.652 266.187997,46.4000025 266.884,45.896 C267.580003,45.3919975 268.155998,44.7560038 268.612,43.988 C269.068002,43.2199962 269.403999,42.3800046 269.62,41.468 C269.836001,40.5559954 269.944,39.6920041 269.944,38.876 C269.944,38.3239972 269.866001,37.7960025 269.71,37.292 C269.553999,36.7879975 269.326002,36.3500019 269.026,35.978 C268.725999,35.6059981 268.348002,35.3060011 267.892,35.078 C267.435998,34.8499989 266.908003,34.736 266.308,34.736 Z M300.848,39.956 L304.196,39.956 L303.296,44.168 L299.948,44.168 L298.688,50 L293.828,50 L295.088,44.168 L283.424,44.168 L284.36,39.524 L299.084,24.8 L304.052,24.8 L300.848,39.956 Z M296.988,39.956 L299.04,30.272 L298.968,30.272 L289.5,39.956 L296.988,39.956 Z" id="Bootstrap-4" fill="#56299A"></path>
            </g>
        </g>
    </g>
</svg>