<?xml version="1.0" encoding="UTF-8"?>
<svg width="158px" height="38px" viewBox="0 0 158 38" version="1.1" xmlns="http://www.w3.org/2000/svg" xmlns:xlink="http://www.w3.org/1999/xlink">
    <!-- Generator: Sketch 46.2 (44496) - http://www.bohemiancoding.com/sketch -->
    <title>hexschool-logo</title>
    <desc>Created with Sketch.</desc>
    <defs></defs>
    <g id="Page-1" stroke="none" stroke-width="1" fill="none" fill-rule="evenodd">
        <g id="Desktop-HD" transform="translate(-252.000000, -10.000000)" fill="#FFFFFF">
            <g id="hexschool-logo" transform="translate(252.000000, 10.000000)">
                <path d="M38.1080232,19.7681034 L30.1925772,33.6056248 C30.0146261,33.9169325 29.3062004,34.3295735 28.9502982,34.3295735 L13.1192452,34.3295735 C12.7631821,34.3295735 12.0549173,33.9169325 11.8769662,33.6056248 L3.96135927,19.7681034 C3.78340815,19.4567957 3.78340815,18.6315137 3.96135927,18.320206 L11.8769662,4.48252222 C12.0549173,4.17137692 12.7631821,3.7587359 13.1192452,3.7587359 L28.9502982,3.7587359 C29.3062004,3.7587359 30.0146261,4.17137692 30.1925772,4.48252222 L38.1080232,18.320206 C38.2859743,18.6315137 38.2859743,19.4567957 38.1080232,19.7681034 M41.4889336,16.9346675 L33.0719743,2.22006068 C32.4082778,1.05992393 30.7792045,0.110573504 29.4518114,0.110573504 L12.617732,0.110573504 C11.2903389,0.110573504 9.66126558,1.05992393 8.99756904,2.22006068 L0.58044888,16.9346675 C-0.0832476578,18.0948043 -0.0832476578,19.9935051 0.58044888,21.1536419 L8.99756904,35.8680863 C9.66126558,37.0283855 11.2903389,37.9775735 12.617732,37.9775735 L29.4518114,37.9775735 C30.7792045,37.9775735 32.4082778,37.0283855 33.0719743,35.8680863 L41.4889336,21.1536419 C42.1526301,19.9935051 42.1526301,18.0948043 41.4889336,16.9346675" id="Fill-12"></path>
                <polygon id="Fill-13" points="8.52620774 21.9704957 21.0347556 21.9704957 21.0347556 19.2910085 8.52620774 19.2910085"></polygon>
                <polygon id="Fill-14" points="10.9789084 26.7760342 21.0347556 26.7760342 21.0347556 24.096547 10.9789084 24.096547"></polygon>
                <polygon id="Fill-15" points="13.4314481 31.5815726 21.0347556 31.5815726 21.0347556 28.9020855 13.4314481 28.9020855"></polygon>
                <path d="M65.6654114,17.8254915 C67.6703381,21.3187308 69.4126823,24.7153462 70.8210061,28.0156624 C70.9880163,28.4011838 70.8687923,28.7144402 70.4868248,28.8830043 L69.5320672,29.2923974 C69.1500998,29.4611239 68.8637047,29.316594 68.6966945,28.931235 C67.1929593,25.3176624 65.522053,21.9449188 63.8036823,18.8613974 C63.5888859,18.4760385 63.6842974,18.1627821 64.0422912,17.9701838 L64.8060652,17.5604658 C65.16422,17.3678675 65.4506151,17.4641667 65.6654114,17.8254915 M58.1946823,18.7649359 C57.0729145,22.3785085 55.4975804,25.7270556 53.3253218,28.9552692 C53.0868737,29.2923974 52.8003177,29.3406282 52.4423238,29.1480299 L51.7023625,28.7384744 C51.3203951,28.5216795 51.2487963,28.2085855 51.4875662,27.8470983 C53.3015092,25.0284402 54.8050835,21.7281239 55.9271731,18.0182521 C56.046558,17.6086966 56.3327923,17.4641667 56.7387332,17.6086966 L57.7889022,17.9701838 C58.1708697,18.0905171 58.3140672,18.3795769 58.1946823,18.7649359 M71.2266253,13.850594 L71.2266253,13.8986624 C71.2266253,14.3324145 71.0118289,14.5492094 70.5823971,14.5492094 L51.4875662,14.5492094 C51.0579735,14.5492094 50.8430163,14.3324145 50.8430163,13.8986624 L50.8430163,13.850594 C50.8430163,13.4170043 51.0579735,13.2002094 51.4875662,13.2002094 L59.8176415,13.2002094 L59.8176415,9.36984188 C59.8176415,8.93625214 60.0324379,8.71945726 60.4620305,8.71945726 L61.6077719,8.71945726 C62.0373646,8.71945726 62.2523218,8.93625214 62.2523218,9.36984188 L62.2523218,13.2002094 L70.5823971,13.2002094 C71.0118289,13.2002094 71.2266253,13.4170043 71.2266253,13.850594" id="Fill-16"></path>
                <path d="M91.108721,23.0531709 L96.6940692,23.0531709 L96.6940692,19.4636325 L91.108721,19.4636325 L91.108721,23.0531709 Z M91.108721,18.3072308 L96.6940692,18.3072308 L96.6940692,14.8865812 L91.108721,14.8865812 L91.108721,18.3072308 Z M84.0197984,13.6577521 L89.4857617,13.6577521 C90.2495356,12.9592991 91.108721,12.0679231 92.0874521,10.9357179 L85.9532872,10.9357179 C85.499721,11.7065983 84.8791446,12.597812 84.0197984,13.6577521 L84.0197984,13.6577521 Z M83.9005743,18.3072308 L88.7697739,18.3072308 L88.7697739,14.8865812 L83.9005743,14.8865812 L83.9005743,18.3072308 Z M83.6619654,23.0531709 L88.7697739,23.0531709 L88.7697739,19.4636325 L83.9005743,19.4636325 C83.8767617,20.7645641 83.805002,21.9208034 83.6619654,23.0531709 L83.6619654,23.0531709 Z M86.9556701,9.03247009 C86.8602587,9.22539316 86.7648473,9.46622222 86.6214888,9.75528205 L93.8297963,9.75528205 C94.259389,9.75528205 94.4741853,9.97207692 94.4741853,10.4056667 L94.4741853,10.4538974 C94.4741853,10.7910256 94.4025866,11.0079829 94.2116029,11.2730085 C93.6864379,11.9233932 92.922664,12.7183077 91.9440937,13.6577521 L98.4124399,13.6577521 C98.8420326,13.6577521 99.0568289,13.874547 99.0568289,14.3082991 L99.0568289,26.9317692 C99.0568289,29.4852393 98.7466212,29.8223675 95.9063218,29.8223675 C95.6199267,29.8223675 94.6413564,29.7744615 93.0182363,29.7262308 C92.5886436,29.7020342 92.3500346,29.4852393 92.3500346,29.0756838 C92.3260611,28.6661282 92.564831,28.4493333 93.0182363,28.4735299 C94.5457841,28.5217607 95.4051303,28.5938632 95.6437393,28.5938632 C96.6700957,28.5938632 96.6940692,28.5698291 96.6940692,27.0038718 L96.6940692,24.2334444 L83.4708208,24.2334444 C83.1368004,26.2089573 82.4446253,28.0155812 81.2750713,29.750265 C81.0363014,30.1115897 80.7021202,30.1598205 80.3680998,29.8947949 L79.6757637,29.3165128 C79.365556,29.0514872 79.3179308,28.7625897 79.5087536,28.4252991 C80.9647026,26.0161966 81.5374929,23.1494701 81.5374929,18.1868974 L81.5374929,16.2354188 L80.53511,17.0545299 C80.1769552,17.3437521 79.8429348,17.2713248 79.652112,16.8619316 L79.4131813,16.3801111 C79.2461711,16.0187863 79.2939572,15.7537607 79.6043259,15.488735 C81.8240489,13.6098462 83.5663931,11.248812 84.8313585,8.45435043 C84.9983686,8.09302564 85.2609511,7.97252991 85.6429185,8.04479487 L86.5259165,8.21352137 C86.9796436,8.30982051 87.1466538,8.62307692 86.9556701,9.03247009 L86.9556701,9.03247009 Z" id="Fill-17"></path>
                <path d="M115.955202,12.7665709 C117.053158,13.2724256 117.912504,13.7542462 118.532919,14.1157333 C118.986486,13.7542462 119.511651,13.2483915 120.108253,12.5497761 C119.678822,12.2607162 119.201443,11.8992291 118.604679,11.4898359 C117.936316,11.8992291 117.053158,12.3328188 115.955202,12.7665709 M121.158583,9.4662547 C120.800429,9.82741709 120.370836,10.2129385 119.821858,10.6465282 L121.110797,11.5380667 C121.468952,11.8029299 121.516577,12.1160239 121.230182,12.4533145 L120.943787,12.8148017 L120.9676,12.8388359 C121.421166,13.0074 121.516577,13.3687248 121.182396,13.7060154 C120.824402,14.0915368 120.370836,14.4768957 119.821858,14.9104855 L121.110797,15.8018615 C121.468952,16.0668872 121.492765,16.3561094 121.230182,16.7172718 L121.158583,16.8137333 C120.896001,17.1510239 120.585632,17.1750581 120.227799,16.9101949 C119.511651,16.3801436 118.962673,15.9946222 118.604679,15.7295966 C117.96029,16.1151179 117.124917,16.5487077 116.146186,16.9342291 C115.788192,17.078759 115.52561,17.0063316 115.263027,16.7655026 C114.95282,16.4764427 115.048231,16.1633487 115.501797,15.9704256 C116.074587,15.7055624 116.695325,15.3682718 117.363526,14.9587162 C116.671351,14.5493231 116.098561,14.2118701 115.644995,13.9950752 C115.239215,13.7782803 115.143803,13.4651863 115.430037,13.1038615 L115.621182,12.8628701 L115.334787,12.5978444 C114.976632,12.2607162 115.048231,11.8992291 115.501797,11.7066308 C116.074587,11.4656393 116.695325,11.1283487 117.363526,10.694759 C116.671351,10.2852034 116.098561,9.94807521 115.644995,9.73128034 C115.239215,9.51432308 115.167616,9.20122906 115.430037,8.83974188 C115.621182,8.57487863 115.883765,8.52664786 116.241598,8.69537436 C117.220168,9.1289641 117.96029,9.51432308 118.532919,9.85161368 C118.915048,9.53835726 119.320667,9.17703248 119.774072,8.69537436 C120.012842,8.40615214 120.299237,8.33388718 120.657392,8.47857949 L120.943787,8.59891282 C121.397192,8.79151111 121.492765,9.1289641 121.158583,9.4662547 M109.319846,9.99614359 C110.680384,9.85161368 112.27953,9.56255385 114.117447,9.20122906 C114.54704,9.10476752 114.809622,9.29752821 114.881221,9.68304957 C114.95282,10.0684085 114.785648,10.3334342 114.356217,10.4056991 C113.282074,10.622494 112.184119,10.7910581 111.133789,10.9597846 L111.181575,12.2607162 L114.165072,12.2607162 C114.594826,12.2607162 114.809622,12.4775111 114.809622,12.9111009 C114.809622,13.1038615 114.594826,13.2001607 114.165072,13.2001607 L111.229361,13.2001607 L111.30096,14.9587162 L114.165072,14.9587162 C114.594826,14.9587162 114.809622,15.1755111 114.809622,15.6092632 C114.809622,15.8018615 114.594826,15.9225197 114.165072,15.9225197 L111.348585,15.9225197 L111.420184,17.7531778 L125.216223,17.7531778 L125.263848,15.9225197 L122.471335,15.9225197 C122.041581,15.9225197 121.826785,15.7055624 121.826785,15.2719726 C121.826785,15.079212 122.041581,14.9587162 122.471335,14.9587162 L125.311634,14.9587162 L125.359259,13.2001607 L122.471335,13.2001607 C122.041581,13.2001607 121.826785,12.9833658 121.826785,12.5497761 C121.826785,12.3570154 122.041581,12.2607162 122.471335,12.2607162 L125.407046,12.2607162 L125.478644,10.5742632 L122.327976,10.5742632 C121.898384,10.5742632 121.683748,10.3574684 121.683748,9.92387863 C121.683748,9.61062222 121.898384,9.44205812 122.327976,9.44205812 L127.268775,9.44205812 C127.698367,9.44205812 127.937137,9.68304957 127.913164,10.1166393 L127.579143,17.7531778 L128.342917,17.7531778 C128.77251,17.7531778 128.987306,17.970135 128.987306,18.4037248 L128.987306,21.0536564 C128.987306,21.4872462 128.77251,21.704041 128.342917,21.704041 L127.268775,21.704041 C126.839182,21.704041 126.624386,21.4872462 126.624386,21.0536564 L126.624386,18.8613487 L110.012021,18.8613487 L110.012021,21.0536564 C110.012021,21.4872462 109.797386,21.704041 109.367632,21.704041 L108.29349,21.704041 C107.863897,21.704041 107.649101,21.4872462 107.649101,21.0536564 L107.649101,18.4037248 C107.649101,17.970135 107.863897,17.7531778 108.29349,17.7531778 L109.033451,17.7531778 L108.723243,10.694759 C108.69927,10.2852034 108.914066,10.044212 109.319846,9.99614359 M125.335608,21.1259214 C125.335608,21.4872462 125.216223,21.704041 124.905854,21.8968017 C123.33052,22.8844769 121.421166,23.8481179 119.201443,24.7635282 L128.462141,24.7635282 C128.891895,24.7635282 129.106691,24.9803231 129.106691,25.4140752 C129.106691,25.7752376 128.891895,25.9679983 128.462141,25.9679983 L119.893618,25.9679983 L119.893618,28.4253316 C119.893618,29.8224 119.535463,30.0635538 116.766763,30.0635538 C115.812005,30.0635538 114.71405,30.0393573 113.449084,29.9670923 C113.067278,29.9430581 112.828508,29.7262632 112.804695,29.3165453 C112.780883,28.9071521 113.019492,28.6903573 113.472897,28.7143915 C115.024418,28.7626222 116.026801,28.8347248 116.50418,28.8347248 C117.554349,28.8347248 117.435125,28.9552205 117.435125,27.8470496 L117.435125,25.9679983 L108.174266,25.9679983 C107.744673,25.9679983 107.529877,25.7512034 107.529877,25.3176137 C107.529877,24.9562889 107.744673,24.7635282 108.174266,24.7635282 L117.435125,24.7635282 L117.435125,24.3059043 C117.435125,23.8723145 117.649921,23.6553573 118.079514,23.6553573 L118.747716,23.6553573 C119.917431,23.1735368 121.206369,22.5473487 122.781703,21.704041 L111.945349,21.704041 C111.515756,21.704041 111.30096,21.4872462 111.30096,21.0536564 C111.30096,20.7645966 111.515756,20.5958701 111.945349,20.5958701 L124.691058,20.5958701 C125.120651,20.5958701 125.335608,20.7886308 125.335608,21.1259214" id="Fill-18"></path>
                <path d="M154.621648,15.4163889 C154.621648,15.8259444 154.406852,16.0427393 153.977259,16.0427393 L147.365715,16.0427393 C146.935962,16.0427393 146.721165,15.8259444 146.721165,15.3925171 C146.721165,15.0069957 146.935962,14.814235 147.365715,14.814235 L153.977259,14.814235 C154.406852,14.814235 154.621648,15.0310299 154.621648,15.4163889 M157.414161,11.8029786 L157.414161,15.0310299 C157.414161,15.4646197 157.199365,15.6814145 156.769933,15.6814145 L155.671817,15.6814145 C155.242224,15.6814145 155.027267,15.4646197 155.027267,15.0310299 L155.027267,12.3810983 L146.26776,12.3810983 L146.26776,15.0310299 C146.26776,15.4646197 146.052964,15.6814145 145.62321,15.6814145 L144.596854,15.6814145 C144.167261,15.6814145 143.952465,15.4646197 143.952465,15.0310299 L143.952465,11.8029786 C143.952465,11.3692265 144.167261,11.1524316 144.596854,11.1524316 L149.203471,11.1524316 L149.203471,9.12885043 C149.203471,8.69526068 149.418267,8.47846581 149.848021,8.47846581 L150.993601,8.47846581 C151.423355,8.47846581 151.638151,8.69526068 151.638151,9.12885043 L151.638151,11.1524316 L156.769933,11.1524316 C157.199365,11.1524316 157.414161,11.3692265 157.414161,11.8029786 M157.07998,19.8490726 C157.07998,20.2828248 156.865184,20.4996197 156.435591,20.4996197 L153.165699,20.4996197 L153.165699,27.2207479 C153.165699,28.3289188 152.998528,28.3047222 154.335253,28.3047222 C155.099027,28.3047222 155.218412,28.3047222 155.457021,27.6543376 C155.552432,27.3894744 155.648004,26.3293718 155.69579,24.5950128 C155.719603,24.1372265 155.958373,23.9202692 156.387966,23.9685 L157.31875,24.0649615 C157.72453,24.1131923 157.915513,24.3299872 157.915513,24.7635769 C157.89154,25.4862265 157.89154,25.9199786 157.819941,26.6426282 C157.748503,27.5820726 157.748503,28.5457137 156.960756,29.1720641 C156.674361,29.4128932 156.196982,29.4370897 155.886613,29.5093547 C155.671817,29.5574231 154.621648,29.5816197 154.263493,29.5816197 C151.279996,29.5816197 150.802778,29.2923974 150.802778,27.8229017 L150.802778,20.4996197 L149.418267,20.4996197 C149.370642,25.5344573 147.819281,27.8711325 142.926269,29.7503462 C142.568114,29.8947137 142.28188,29.7984145 142.066923,29.4611239 L141.995324,29.316594 C141.756715,28.931235 141.875939,28.6179786 142.28188,28.4494145 C145.790381,27.0279872 147.007721,25.004406 147.103133,20.4996197 L144.88341,20.4996197 C144.453817,20.4996197 144.239021,20.2828248 144.239021,19.8490726 C144.239021,19.4395171 144.453817,19.2227222 144.88341,19.2227222 L156.435591,19.2227222 C156.865184,19.2227222 157.07998,19.4395171 157.07998,19.8490726 M143.618283,11.2729274 C142.353318,14.5251752 141.780367,15.6814145 141.326962,16.8378162 C143.069306,18.9818932 143.475247,20.2828248 143.475247,22.1859103 C143.475247,24.2093291 142.520489,25.245235 140.133595,25.245235 C139.775601,25.245235 139.560805,25.0526368 139.489045,24.6671154 C139.417607,24.2817564 139.632403,24.040765 140.085809,24.040765 L139.894986,24.040765 C140.921342,24.040765 141.326962,23.6071752 141.326962,21.8245855 C141.326962,20.1140983 140.849583,18.957859 139.584617,17.271406 C139.346008,16.9823462 139.322035,16.7173205 139.465393,16.3801923 C140.229167,14.6214744 141.064379,12.6941923 141.63733,10.6706111 L138.79687,10.6706111 L138.79687,29.2443291 C138.79687,29.6779188 138.582234,29.8947137 138.152642,29.8947137 L137.341082,29.8947137 C136.911489,29.8947137 136.696532,29.6779188 136.696532,29.2443291 L136.696532,10.1647564 C136.696532,9.73116667 136.911489,9.5142094 137.341082,9.5142094 L143.141065,9.5142094 C143.570497,9.5142094 143.785454,9.73116667 143.785454,10.1647564 L143.785454,10.4538162 C143.785454,10.7430385 143.737668,10.9598333 143.618283,11.2729274" id="Fill-19"></path>
            </g>
        </g>
    </g>
</svg>