<?xml version="1.0" encoding="UTF-8"?>
<svg width="230px" height="174px" viewBox="0 0 230 174" version="1.1" xmlns="http://www.w3.org/2000/svg" xmlns:xlink="http://www.w3.org/1999/xlink">
    <!-- Generator: Sketch 46.2 (44496) - http://www.bohemiancoding.com/sketch -->
    <title>sass</title>
    <desc>Created with Sketch.</desc>
    <defs></defs>
    <g id="Page-1" stroke="none" stroke-width="1" fill="none" fill-rule="evenodd">
        <g id="Desktop-HD" transform="translate(-927.000000, -3296.000000)" stroke="#979797" stroke-width="3" fill-rule="nonzero">
            <path d="M1123.55163,3395.61878 C1115.64977,3395.66352 1108.80738,3397.56797 1103.0686,3400.4036 C1100.94966,3396.19512 1098.83073,3392.51779 1098.47801,3389.77165 C1098.08071,3386.58206 1097.59512,3384.63243 1098.08071,3380.82309 C1098.56586,3377.01286 1100.77308,3371.60828 1100.77308,3371.16529 C1100.7285,3370.76659 1100.28705,3368.8174 1095.74061,3368.7731 C1091.19417,3368.7288 1087.26487,3369.65909 1086.82343,3370.85519 C1086.38198,3372.05128 1085.49909,3374.79787 1084.92521,3377.63306 C1084.13061,3381.79724 1075.83145,3396.54907 1071.10799,3404.30154 C1069.56294,3401.28915 1068.2386,3398.63116 1067.97329,3396.50433 C1067.57643,3393.31519 1067.0904,3391.36555 1067.57643,3387.55621 C1068.06202,3383.74599 1070.26925,3378.34185 1070.26925,3377.89886 C1070.2251,3377.50016 1069.78366,3375.55097 1065.23722,3375.50667 C1060.6899,3375.46237 1056.76148,3376.39266 1056.32003,3377.58876 C1055.87859,3378.78485 1055.393,3381.62004 1054.42182,3384.36663 C1053.49435,3387.11322 1042.45823,3411.74391 1039.58883,3418.16738 C1038.13207,3421.44556 1036.85232,3424.05925 1035.92484,3425.83124 C1034.99781,3427.60324 1035.8807,3425.96414 1035.79241,3426.14134 C1034.99781,3427.64754 1034.55636,3428.48923 1034.55636,3428.48923 L1034.55636,3428.53397 C1033.93834,3429.64147 1033.27617,3430.70422 1032.96672,3430.70422 C1032.746,3430.70422 1032.30455,3427.73614 1033.05501,3423.661 C1034.68836,3415.11069 1038.66136,3401.77689 1038.61766,3401.2896 C1038.61766,3401.0681 1039.36767,3398.71976 1036.05684,3397.52411 C1032.83429,3396.32802 1031.68697,3398.32151 1031.42166,3398.32151 C1031.1568,3398.32151 1030.93608,3399.03031 1030.93608,3399.03031 C1030.93608,3399.03031 1034.51178,3384.01311 1024.09368,3384.01311 C1017.5603,3384.01311 1008.55482,3391.14538 1004.09623,3397.65745 C1001.27099,3399.20795 995.267337,3402.48569 988.910532,3405.98582 C986.482585,3407.31481 983.96635,3408.73241 981.582548,3410.0171 L981.0974,3409.48462 C968.472079,3395.97318 945.11965,3386.40442 946.090828,3368.2415 C946.443984,3361.64083 948.739497,3344.23101 990.942061,3323.1443 C1025.50719,3305.86738 1053.18578,3310.60745 1057.99708,3321.15081 C1064.83948,3336.21274 1043.20868,3364.21022 1007.27552,3368.2415 C993.590729,3369.79199 986.394738,3364.47602 984.585256,3362.48252 C982.687043,3360.40043 982.422176,3360.31183 981.715864,3360.71053 C980.568108,3361.33073 981.27442,3363.19132 981.715864,3364.29882 C982.775332,3367.0897 987.18978,3372.05128 994.694341,3374.53207 C1001.27143,3376.70276 1017.34046,3377.89886 1036.76403,3370.36789 C1058.52726,3361.90663 1075.52288,3338.42773 1070.53456,3318.80292 C1065.45794,3298.82371 1032.43787,3292.26734 1001.22772,3303.38659 C982.642457,3310.03156 962.512575,3320.39771 948.033186,3333.99775 C930.816839,3350.12288 928.079881,3364.21022 929.227637,3370.05779 C933.245227,3390.923 961.894552,3404.52304 973.372116,3414.57909 C972.798238,3414.88875 972.268504,3415.19885 971.782915,3415.46509 C966.044133,3418.29983 944.192616,3429.77393 938.7187,3441.91163 C932.538473,3455.64457 939.689879,3465.52387 944.457483,3466.85286 C959.201739,3470.97274 974.29915,3463.57468 982.465879,3451.39223 C990.588022,3439.20978 989.617285,3423.39475 985.865004,3416.17389 L985.732129,3415.90809 L990.234866,3413.2501 C993.148843,3411.52241 996.018234,3409.92761 998.534028,3408.55388 C997.121846,3412.40796 996.106082,3416.97084 995.576789,3423.61581 C994.958767,3431.41302 998.137169,3441.51293 1002.33089,3445.49991 C1004.18496,3447.22716 1006.39219,3447.27191 1007.76067,3447.27191 C1012.61656,3447.27191 1014.82378,3443.24018 1017.25173,3438.41194 C1020.25355,3432.52007 1022.90222,3425.6979 1022.90222,3425.6979 C1022.90222,3425.6979 1019.59139,3444.17092 1028.641,3444.17092 C1031.95184,3444.17092 1035.26268,3439.87384 1036.76359,3437.65885 L1036.76359,3437.70315 C1036.76359,3437.70315 1036.85188,3437.57025 1037.02846,3437.26015 C1037.21368,3436.98531 1037.39034,3436.70476 1037.55819,3436.4189 L1037.55819,3436.3303 C1038.88252,3434.02671 1041.8402,3428.75503 1046.25465,3420.02797 C1051.94885,3408.77582 1057.4232,3394.68848 1057.4232,3394.68848 C1057.4232,3394.68848 1057.95294,3398.14387 1059.58628,3403.81424 C1060.55702,3407.18147 1062.67596,3410.85791 1064.3093,3414.44619 C1062.98497,3416.30679 1062.19037,3417.37042 1062.19037,3417.37042 L1062.23451,3417.41472 C1061.17549,3418.83232 1059.98314,3420.33895 1058.74754,3421.8447 C1054.2448,3427.24928 1048.85918,3433.4074 1048.15286,3435.17939 C1047.31412,3437.26104 1047.4907,3438.81153 1049.12404,3440.05237 C1050.31594,3440.93836 1052.43488,3441.11512 1054.68625,3440.93836 C1058.74754,3440.67212 1061.57279,3439.65367 1062.98541,3439.03303 C1065.19263,3438.23563 1067.70887,3437.03954 1070.13681,3435.26754 C1074.55126,3431.9898 1077.24408,3427.33832 1076.97921,3421.13635 C1076.84678,3417.72527 1075.74316,3414.35848 1074.37468,3411.16889 C1074.77198,3410.593 1075.16973,3410.01666 1075.56659,3409.3969 C1082.54141,3399.1632 1087.92704,3387.9115 1087.92704,3387.9115 C1087.92704,3387.9115 1088.45677,3391.36688 1090.09012,3397.03726 C1090.92842,3399.91674 1092.60635,3403.06247 1094.10727,3406.16346 C1087.57388,3411.52374 1083.46845,3417.72571 1082.05582,3421.80129 C1079.4513,3429.33226 1081.48195,3432.74334 1085.32252,3433.54074 C1087.04371,3433.89514 1089.51624,3433.09774 1091.36987,3432.30034 C1093.66538,3431.54725 1096.44648,3430.26211 1099.0073,3428.35766 C1103.42175,3425.07948 1107.65962,3420.5166 1107.4389,3414.35892 C1107.30647,3411.52374 1106.55601,3408.73285 1105.54069,3406.07486 C1111.10289,3403.77127 1118.298,3402.44228 1127.43635,3403.54977 C1147.08064,3405.85336 1150.96536,3418.16871 1150.21534,3423.30748 C1149.46488,3428.4467 1145.35945,3431.28145 1143.99053,3432.16744 C1142.62205,3433.00914 1142.1806,3433.31968 1142.31304,3433.93944 C1142.48962,3434.87018 1143.10764,3434.82543 1144.29954,3434.64868 C1145.93288,3434.38243 1154.62935,3430.4402 1154.9825,3420.96048 C1155.51224,3408.77626 1143.99053,3395.48632 1123.55163,3395.61878 L1123.55163,3395.61878 Z M972.02506,3446.69202 C965.454217,3453.80273 956.201398,3456.49685 952.267833,3454.20022 C948.02137,3451.7711 949.674809,3441.30378 957.765885,3433.75141 C962.682842,3429.15816 969.074886,3424.91823 973.276649,3422.31244 C974.215341,3421.73829 975.645728,3420.89958 977.344313,3419.88332 C977.612511,3419.7071 977.791309,3419.61832 977.791309,3419.61832 C978.104207,3419.44166 978.461804,3419.22083 978.8194,3419 C981.814274,3429.77648 978.953499,3439.22798 972.02506,3446.69202 L972.02506,3446.69202 Z M1019.17917,3414.85649 C1016.97254,3420.43798 1012.29969,3434.77127 1009.48733,3433.96753 C1007.06393,3433.29775 1005.59328,3422.44732 1009.01095,3411.73085 C1010.74164,3406.32751 1014.41935,3399.89807 1016.58271,3397.39712 C1020.08778,3393.37844 1023.89486,3392.03888 1024.84717,3393.691 C1025.97211,3395.83474 1020.56372,3411.37363 1019.17917,3414.85649 Z M1058.29662,3433.31113 C1057.3392,3433.81478 1056.46882,3434.18027 1056.07715,3433.90627 C1055.77251,3433.72329 1056.46838,3433.03712 1056.46838,3433.03712 C1056.46838,3433.03712 1061.299,3427.59355 1063.21384,3425.07762 C1064.30182,3423.61426 1065.60739,3421.92172 1067,3420 L1067,3420.54893 C1067.00044,3427.13565 1060.9948,3431.5271 1058.29662,3433.31113 Z M1088.4049,3426 C1087.66364,3425.46814 1087.75676,3423.82825 1090.25804,3418.68698 C1091.2314,3416.6482 1093.4547,3413.23546 1097.29997,3410 C1097.76325,3411.32964 1098.04169,3412.61452 1097.9949,3413.81163 C1097.94903,3421.78947 1092.01898,3424.759 1088.4049,3426 Z" id="sass"></path>
        </g>
    </g>
</svg>