<?xml version="1.0" encoding="UTF-8"?>
<svg width="187px" height="175px" viewBox="0 0 187 175" version="1.1" xmlns="http://www.w3.org/2000/svg" xmlns:xlink="http://www.w3.org/1999/xlink">
    <!-- Generator: Sketch 46.2 (44496) - http://www.bohemiancoding.com/sketch -->
    <title>section_flexbox</title>
    <desc>Created with Sketch.</desc>
    <defs></defs>
    <g id="Page-1" stroke="none" stroke-width="1" fill="none" fill-rule="evenodd">
        <g id="Desktop-HD" transform="translate(-308.000000, -3296.000000)" fill-rule="nonzero">
            <g id="section_flexbox" transform="translate(310.000000, 3298.000000)">
                <rect id="Rectangle-path" stroke="#979797" stroke-width="3" x="0" y="53" width="53" height="66" rx="5"></rect>
                <rect id="Rectangle-path" stroke="#979797" stroke-width="3" x="73" y="53" width="110" height="66" rx="5"></rect>
                <rect id="Rectangle-path" stroke="#979797" stroke-width="3" x="0" y="137" width="110" height="34" rx="5"></rect>
                <rect id="Rectangle-path" stroke="#979797" stroke-width="3" x="128" y="137" width="55" height="34" rx="5"></rect>
                <rect id="Rectangle-path" stroke="#979797" stroke-width="3" x="0" y="0" width="183" height="34" rx="5"></rect>
                <g id="Group" transform="translate(9.000000, 68.000000)" fill="#9B9B9B">
                    <rect id="Rectangle-path" x="81.4101695" y="2.49307692" width="76.0542373" height="10.7692308"></rect>
                    <rect id="Rectangle-path" x="81.4101695" y="21.8776923" width="76.0542373" height="10.7692308"></rect>
                    <polygon id="Shape" points="34.2951051 8.04784615 26.7186034 0.435076923 17.2530644 9.95130769 7.78752542 0.435076923 0.213166102 8.05 9.67870508 17.5662308 0.213166102 27.0824615 7.78538305 34.6995385 17.2530644 25.1811538 26.7207458 34.6995385 34.2951051 27.0846154 24.8274237 17.5662308"></polygon>
                </g>
            </g>
        </g>
    </g>
</svg>