<?xml version="1.0" encoding="UTF-8"?>
<svg width="341px" height="98px" viewBox="0 0 341 98" version="1.1" xmlns="http://www.w3.org/2000/svg" xmlns:xlink="http://www.w3.org/1999/xlink">
    <!-- Generator: Sketch 46.2 (44496) - http://www.bohemiancoding.com/sketch -->
    <title>section_translate_btn</title>
    <desc>Created with Sketch.</desc>
    <defs></defs>
    <g id="Page-1" stroke="none" stroke-width="1" fill="none" fill-rule="evenodd">
        <g id="Desktop-HD" transform="translate(-548.000000, -4154.000000)">
            <g id="section_translate_btn" transform="translate(548.000000, 4154.000000)">
                <g id="Group" opacity="0.598165761" transform="translate(114.500000, 4.500000)" fill="#4D5C70">
                    <path d="M31.7164877,16.3867173 L25.1286323,27.8572942 C24.9805274,28.1153519 24.39092,28.4574096 24.0947102,28.4574096 L10.9188655,28.4574096 C10.6225218,28.4574096 10.0330483,28.1153519 9.88494338,27.8572942 L3.29695407,16.3867173 C3.14884919,16.1286596 3.14884919,15.4445442 3.29695407,15.1864865 L9.88494338,3.715775 C10.0330483,3.45785192 10.6225218,3.11579423 10.9188655,3.11579423 L24.0947102,3.11579423 C24.39092,3.11579423 24.9805274,3.45785192 25.1286323,3.715775 L31.7164877,15.1864865 C31.8645926,15.4445442 31.8645926,16.1286596 31.7164877,16.3867173 M34.5303466,14.0379481 L27.5250926,1.84031346 C26.9727122,0.878621154 25.6168696,0.0916596154 24.5121089,0.0916596154 L10.5014668,0.0916596154 C9.39670611,0.0916596154 8.04086344,0.878621154 7.4884831,1.84031346 L0.483095112,14.0379481 C-0.0692852342,14.9996404 -0.0692852342,16.5735635 0.483095112,17.5352558 L7.4884831,29.7327558 C8.04086344,30.6945827 9.39670611,31.4814096 10.5014668,31.4814096 L24.5121089,31.4814096 C25.6168696,31.4814096 26.9727122,30.6945827 27.5250926,29.7327558 L34.5303466,17.5352558 C35.082727,16.5735635 35.082727,14.9996404 34.5303466,14.0379481" id="Fill-12"></path>
                    <polygon id="Fill-13" points="7.09617923 18.2123846 17.5067744 18.2123846 17.5067744 15.9912308 7.09617923 15.9912308"></polygon>
                    <polygon id="Fill-14" points="9.13750916 22.1959231 17.5067744 22.1959231 17.5067744 19.9747692 9.13750916 19.9747692"></polygon>
                    <polygon id="Fill-15" points="11.1787052 26.1794615 17.5067744 26.1794615 17.5067744 23.9583077 11.1787052 23.9583077"></polygon>
                    <path d="M54.6519089,14.7763942 C56.3205662,17.6721058 57.7706818,20.4877212 58.9427994,23.2235096 C59.0817984,23.5430865 58.9825708,23.8027596 58.6646675,23.9424904 L57.8700433,24.2818558 C57.55214,24.4217212 57.3137795,24.3019135 57.1747805,23.9824712 C55.9232541,20.9870096 54.5325947,18.1911827 53.1024318,15.6351058 C52.9236614,15.3156635 53.0030703,15.0559904 53.3010209,14.8963365 L53.9366935,14.5567019 C54.234778,14.3970481 54.4731385,14.476875 54.6519089,14.7763942 M48.4341818,15.5551442 C47.5005586,18.5506058 46.189442,21.326375 44.3815178,24.0023942 C44.1830626,24.2818558 43.9445682,24.3218365 43.6466176,24.1621827 L43.0307637,23.8226827 C42.7128605,23.6429712 42.6532704,23.3834327 42.8519934,23.0837788 C44.3616991,20.7472596 45.6130916,18.0114712 46.5469827,14.9361827 C46.6463442,14.5966827 46.8845708,14.476875 47.2224267,14.5966827 L48.0964598,14.8963365 C48.414363,14.9960865 48.5335433,15.2357019 48.4341818,15.5551442 M59.2803875,11.4814135 L59.2803875,11.5212596 C59.2803875,11.8808173 59.1016171,12.0605288 58.7442103,12.0605288 L42.8519934,12.0605288 C42.4944526,12.0605288 42.3155484,11.8808173 42.3155484,11.5212596 L42.3155484,11.4814135 C42.3155484,11.1219904 42.4944526,10.9422788 42.8519934,10.9422788 L49.7849358,10.9422788 L49.7849358,7.76710577 C49.7849358,7.40768269 49.9637062,7.22797115 50.3212469,7.22797115 L51.2748228,7.22797115 C51.6323635,7.22797115 51.8112678,7.40768269 51.8112678,7.76710577 L51.8112678,10.9422788 L58.7442103,10.9422788 C59.1016171,10.9422788 59.2803875,11.1219904 59.2803875,11.4814135" id="Fill-16"></path>
                    <path d="M75.8278279,19.1098654 L80.4763931,19.1098654 L80.4763931,16.1343269 L75.8278279,16.1343269 L75.8278279,19.1098654 Z M75.8278279,15.1757308 L80.4763931,15.1757308 L80.4763931,12.3401923 L75.8278279,12.3401923 L75.8278279,15.1757308 Z M69.9278702,11.3215577 L74.4770738,11.3215577 C75.1127464,10.7425769 75.8278279,10.0036731 76.6424048,9.06513462 L71.5370713,9.06513462 C71.1595779,9.70415385 70.6430855,10.4429231 69.9278702,11.3215577 L69.9278702,11.3215577 Z M69.8286426,15.1757308 L73.8811726,15.1757308 L73.8811726,12.3401923 L69.8286426,12.3401923 L69.8286426,15.1757308 Z M69.6300535,19.1098654 L73.8811726,19.1098654 L73.8811726,16.1343269 L69.8286426,16.1343269 C69.8088238,17.2127308 69.7490998,18.1711923 69.6300535,19.1098654 L69.6300535,19.1098654 Z M72.371333,7.48744231 C72.2919241,7.64736538 72.2125153,7.847 72.0932011,8.08661538 L78.0925204,8.08661538 C78.4500611,8.08661538 78.6288315,8.26632692 78.6288315,8.62575 L78.6288315,8.66573077 C78.6288315,8.94519231 78.5692413,9.12503846 78.4102897,9.34473077 C77.9732062,9.88386538 77.3375336,10.5428077 76.5230906,11.3215577 L81.906556,11.3215577 C82.2640967,11.3215577 82.4428671,11.5012692 82.4428671,11.8608269 L82.4428671,22.3250192 C82.4428671,24.4417115 82.1846879,24.7211731 79.8207678,24.7211731 C79.5824073,24.7211731 78.7679644,24.6814615 77.4170764,24.6414808 C77.0595356,24.6214231 76.8609465,24.4417115 76.8609465,24.1022115 C76.8409939,23.7627115 77.0397169,23.583 77.4170764,23.6030577 C78.6884216,23.6430385 79.403637,23.7028077 79.6022261,23.7028077 C80.4564404,23.7028077 80.4763931,23.6828846 80.4763931,22.3847885 L80.4763931,20.08825 L69.4709679,20.08825 C69.19297,21.7258462 68.6168875,23.2234423 67.6434929,24.6614038 C67.4447699,24.9609231 67.166638,25.0009038 66.88864,24.7812115 L66.3124236,24.3018462 C66.0542444,24.0821538 66.0146069,23.8426731 66.1734246,23.5630769 C67.3851797,21.5660577 67.8619007,19.1896923 67.8619007,15.0759808 L67.8619007,13.4583077 L67.027639,14.1373077 C66.7295545,14.3770577 66.4515565,14.3170192 66.2927388,13.9776538 L66.0938819,13.57825 C65.9548829,13.2787308 65.9946543,13.0590385 66.2529674,12.8393462 C68.1003951,11.2818462 69.5505107,9.32467308 70.6033142,7.00821154 C70.7423131,6.70869231 70.9608549,6.60880769 71.2787581,6.66871154 L72.0136584,6.80857692 C72.3912856,6.88840385 72.5302846,7.14807692 72.371333,7.48744231 L72.371333,7.48744231 Z" id="Fill-17"></path>
                    <path d="M96.5070198,10.5828154 C97.4208242,11.0021423 98.1360396,11.4015462 98.6523981,11.7012 C99.0298914,11.4015462 99.4669749,10.9822192 99.9635147,10.4031038 C99.6061078,10.1634885 99.2087957,9.86383462 98.7121221,9.52446923 C98.1558584,9.86383462 97.4208242,10.2232577 96.5070198,10.5828154 M100.837682,7.84702692 C100.539597,8.14641154 100.182056,8.46598846 99.7251542,8.82541154 L100.79791,9.56445 C101.095995,9.78400769 101.135632,10.0435462 100.897272,10.3231423 L100.658911,10.6227962 L100.67873,10.6427192 C101.056223,10.78245 101.135632,11.0819692 100.8575,11.3615654 C100.55955,11.6811423 100.182056,12.0005846 99.7251542,12.3600077 L100.79791,13.0989115 C101.095995,13.3186038 101.115814,13.5583538 100.897272,13.8577385 L100.837682,13.9377 C100.61914,14.2172962 100.360827,14.2372192 100.06301,14.0176615 C99.4669749,13.5782769 99.0100727,13.2587 98.7121221,13.0390077 C98.175811,13.3585846 97.4805483,13.7180077 96.6659714,14.0375846 C96.3680208,14.1573923 96.149479,14.0973538 95.9309373,13.8977192 C95.672758,13.6581038 95.7521669,13.3985654 96.1296603,13.2386423 C96.6063813,13.0190846 97.1230075,12.7394885 97.6791374,12.3999885 C97.1030549,12.0606231 96.6263339,11.7808923 96.2488405,11.6011808 C95.9111185,11.4214692 95.8317097,11.1619308 96.0699363,10.8624115 L96.2290218,10.6626423 L95.9906613,10.44295 C95.6925768,10.1634885 95.7521669,9.86383462 96.1296603,9.70418077 C96.6063813,9.50441154 97.1230075,9.22481538 97.6791374,8.86539231 C97.1030549,8.52589231 96.6263339,8.24643077 96.2488405,8.06671923 C95.9111185,7.88687308 95.8515284,7.62733462 96.0699363,7.32768077 C96.2290218,7.10812308 96.4475635,7.06814231 96.7453802,7.20800769 C97.5598232,7.56743077 98.175811,7.88687308 98.6523981,8.16646923 C98.9704352,7.90679615 99.3080233,7.60727692 99.6853828,7.20800769 C99.8841058,6.96825769 100.122466,6.90835385 100.420551,7.02829615 L100.658911,7.12804615 C101.036271,7.2877 101.115814,7.56743077 100.837682,7.84702692 M90.9845554,8.28627692 C92.1169016,8.16646923 93.447837,7.92685385 94.9774953,7.62733462 C95.335036,7.54737308 95.5535778,7.70716154 95.6131679,8.02673846 C95.672758,8.34618077 95.5336252,8.56587308 95.1762183,8.62577692 C94.2822326,8.80548846 93.3684281,8.94521923 92.4942611,9.08508462 L92.5340325,10.1634885 L95.0171328,10.1634885 C95.3748074,10.1634885 95.5535778,10.3432 95.5535778,10.7026231 C95.5535778,10.8624115 95.3748074,10.9422385 95.0171328,10.9422385 L92.5738039,10.9422385 L92.633394,12.3999885 L95.0171328,12.3999885 C95.3748074,12.3999885 95.5535778,12.5797 95.5535778,12.9392577 C95.5535778,13.0989115 95.3748074,13.1989308 95.0171328,13.1989308 L92.6730315,13.1989308 L92.7326216,14.71645 L104.214768,14.71645 L104.254405,13.1989308 L101.930257,13.1989308 C101.572582,13.1989308 101.393812,13.0190846 101.393812,12.6596615 C101.393812,12.4998731 101.572582,12.3999885 101.930257,12.3999885 L104.294177,12.3999885 L104.333814,10.9422385 L101.930257,10.9422385 C101.572582,10.9422385 101.393812,10.7625269 101.393812,10.4031038 C101.393812,10.2433154 101.572582,10.1634885 101.930257,10.1634885 L104.373585,10.1634885 L104.433176,8.76550769 L101.810942,8.76550769 C101.453402,8.76550769 101.274765,8.58579615 101.274765,8.22637308 C101.274765,7.9667 101.453402,7.82696923 101.810942,7.82696923 L105.923063,7.82696923 C106.280603,7.82696923 106.479326,8.02673846 106.459374,8.38616154 L106.181376,14.71645 L106.817048,14.71645 C107.174589,14.71645 107.353359,14.8962962 107.353359,15.2557192 L107.353359,17.4523731 C107.353359,17.8117962 107.174589,17.9915077 106.817048,17.9915077 L105.923063,17.9915077 C105.565522,17.9915077 105.386751,17.8117962 105.386751,17.4523731 L105.386751,15.6350654 L91.5606379,15.6350654 L91.5606379,17.4523731 C91.5606379,17.8117962 91.3820014,17.9915077 91.0243268,17.9915077 L90.130341,17.9915077 C89.7728003,17.9915077 89.5940299,17.8117962 89.5940299,17.4523731 L89.5940299,15.2557192 C89.5940299,14.8962962 89.7728003,14.71645 90.130341,14.71645 L90.7461949,14.71645 L90.4880157,8.86539231 C90.468063,8.52589231 90.6468334,8.32612308 90.9845554,8.28627692 M104.314129,17.5122769 C104.314129,17.8117962 104.214768,17.9915077 103.956455,18.1512962 C102.645338,18.9700269 101.056223,19.7688346 99.2087957,20.5276615 L106.916276,20.5276615 C107.273951,20.5276615 107.452721,20.7073731 107.452721,21.0669308 C107.452721,21.3663154 107.273951,21.5261038 106.916276,21.5261038 L99.7848782,21.5261038 L99.7848782,23.5631038 C99.7848782,24.7212 99.4867937,24.9211038 97.1824637,24.9211038 C96.3878395,24.9211038 95.474035,24.9010462 94.4212316,24.8411423 C94.1034622,24.8212192 93.9047392,24.6415077 93.8849205,24.3018731 C93.8651017,23.9625077 94.0636908,23.7827962 94.4410503,23.8027192 C95.7323482,23.8427 96.5666099,23.9024692 96.963922,23.9024692 C97.8379551,23.9024692 97.7387275,24.0023538 97.7387275,23.0837385 L97.7387275,21.5261038 L90.0311134,21.5261038 C89.6735727,21.5261038 89.4948023,21.3463923 89.4948023,20.9869692 C89.4948023,20.68745 89.6735727,20.5276615 90.0311134,20.5276615 L97.7387275,20.5276615 L97.7387275,20.1483154 C97.7387275,19.7888923 97.9174979,19.6090462 98.2750386,19.6090462 L98.8311684,19.6090462 C99.8046969,19.2096423 100.877453,18.6905654 102.18857,17.9915077 L93.1697051,17.9915077 C92.8121644,17.9915077 92.633394,17.8117962 92.633394,17.4523731 C92.633394,17.2127577 92.8121644,17.0728923 93.1697051,17.0728923 L103.777684,17.0728923 C104.135225,17.0728923 104.314129,17.2326808 104.314129,17.5122769" id="Fill-18"></path>
                    <path d="M128.68827,12.779375 C128.68827,13.118875 128.5095,13.2985865 128.151959,13.2985865 L122.649313,13.2985865 C122.291639,13.2985865 122.112868,13.118875 122.112868,12.7595865 C122.112868,12.4400096 122.291639,12.2802212 122.649313,12.2802212 L128.151959,12.2802212 C128.5095,12.2802212 128.68827,12.4599327 128.68827,12.779375 M131.012419,9.78404808 L131.012419,12.4599327 C131.012419,12.8193558 130.833649,12.9990673 130.476242,12.9990673 L129.562303,12.9990673 C129.204763,12.9990673 129.025858,12.8193558 129.025858,12.4599327 L129.025858,10.2632788 L121.735509,10.2632788 L121.735509,12.4599327 C121.735509,12.8193558 121.556739,12.9990673 121.199064,12.9990673 L120.34485,12.9990673 C119.987309,12.9990673 119.808539,12.8193558 119.808539,12.4599327 L119.808539,9.78404808 C119.808539,9.42449038 119.987309,9.24477885 120.34485,9.24477885 L124.178838,9.24477885 L124.178838,7.56733654 C124.178838,7.20791346 124.357608,7.02820192 124.715283,7.02820192 L125.668725,7.02820192 C126.0264,7.02820192 126.20517,7.20791346 126.20517,7.56733654 L126.20517,9.24477885 L130.476242,9.24477885 C130.833649,9.24477885 131.012419,9.42449038 131.012419,9.78404808 M130.734287,16.4538365 C130.734287,16.8133942 130.555517,16.9931058 130.197976,16.9931058 L127.476515,16.9931058 L127.476515,22.5645673 C127.476515,23.4831827 127.337382,23.463125 128.44991,23.463125 C129.085582,23.463125 129.184944,23.463125 129.383533,22.9239904 C129.462942,22.7044327 129.542485,21.8256635 129.582256,20.3879712 C129.602075,20.0084904 129.800798,19.8286442 130.158338,19.868625 L130.93301,19.9485865 C131.270732,19.9885673 131.429684,20.1682788 131.429684,20.5277019 C131.409731,21.1267404 131.409731,21.4862981 131.350141,22.0853365 C131.290685,22.8640865 131.290685,23.6628942 130.635059,24.1821058 C130.396699,24.3817404 129.999387,24.4017981 129.741074,24.4617019 C129.562303,24.5015481 128.68827,24.5216058 128.390186,24.5216058 C125.907085,24.5216058 125.509907,24.2818558 125.509907,23.0637212 L125.509907,16.9931058 L124.357608,16.9931058 C124.317971,21.1667212 123.026807,23.1037019 118.954458,24.6614712 C118.656374,24.7811442 118.418147,24.7013173 118.239243,24.4217212 L118.179653,24.3019135 C117.981063,23.9824712 118.080291,23.7227981 118.418147,23.5830673 C121.338197,22.4047788 122.351363,20.7273365 122.430772,16.9931058 L120.583344,16.9931058 C120.225803,16.9931058 120.047033,16.8133942 120.047033,16.4538365 C120.047033,16.1143365 120.225803,15.934625 120.583344,15.934625 L130.197976,15.934625 C130.555517,15.934625 130.734287,16.1143365 130.734287,16.4538365 M119.530407,9.34466346 C118.477603,12.0406058 118.000748,12.9990673 117.623389,13.9576635 C119.073504,15.7349904 119.41136,16.8133942 119.41136,18.3909519 C119.41136,20.0682596 118.616736,20.9269712 116.630176,20.9269712 C116.332225,20.9269712 116.153455,20.7673173 116.09373,20.4477404 C116.034274,20.1282981 116.213045,19.9285288 116.590404,19.9285288 L116.431586,19.9285288 C117.285801,19.9285288 117.623389,19.5691058 117.623389,18.0914327 C117.623389,16.6735288 117.226077,15.7150673 116.173273,14.3170865 C115.974684,14.0774712 115.954732,13.8577788 116.074046,13.5783173 C116.709718,12.1204327 117.404847,10.5228173 117.881702,8.845375 L115.517648,8.845375 L115.517648,24.2420096 C115.517648,24.6014327 115.339012,24.7811442 114.981471,24.7811442 L114.306027,24.7811442 C113.948486,24.7811442 113.769582,24.6014327 113.769582,24.2420096 L113.769582,8.42604808 C113.769582,8.066625 113.948486,7.88677885 114.306027,7.88677885 L119.133228,7.88677885 C119.490635,7.88677885 119.66954,8.066625 119.66954,8.42604808 L119.66954,8.66566346 C119.66954,8.90541346 119.629768,9.085125 119.530407,9.34466346" id="Fill-19"></path>
                </g>
                <g id="Group-2" transform="translate(108.000000, 36.500000)" fill="#371667">
                    <path d="M14.0168241,19.7 L19.7408241,19.7 C20.7488291,19.7 21.5768208,19.4600024 22.2248241,18.98 C22.8728273,18.4999976 23.1968241,17.7200054 23.1968241,16.64 C23.1968241,16.039997 23.0888252,15.5480019 22.8728241,15.164 C22.656823,14.7799981 22.3688259,14.4800011 22.0088241,14.264 C21.6488223,14.0479989 21.2348264,13.8980004 20.7668241,13.814 C20.2988217,13.7299996 19.8128266,13.688 19.3088241,13.688 L14.0168241,13.688 L14.0168241,19.7 Z M8.36482409,9.296 L20.4608241,9.296 C21.6848302,9.296 22.800819,9.40399892 23.8088241,9.62 C24.8168291,9.83600108 25.6808205,10.1899975 26.4008241,10.682 C27.1208277,11.1740025 27.6788221,11.8279959 28.0748241,12.644 C28.4708261,13.4600041 28.6688241,14.467994 28.6688241,15.668 C28.6688241,16.9640065 28.374827,18.0439957 27.7868241,18.908 C27.1988211,19.7720043 26.3288298,20.4799972 25.1768241,21.032 C26.760832,21.4880023 27.9428202,22.2859943 28.7228241,23.426 C29.502828,24.5660057 29.8928241,25.939992 29.8928241,27.548 C29.8928241,28.8440065 29.6408266,29.9659953 29.1368241,30.914 C28.6328216,31.8620047 27.9548283,32.635997 27.1028241,33.236 C26.2508198,33.836003 25.2788295,34.2799986 24.1868241,34.568 C23.0948186,34.8560014 21.9728298,35 20.8208241,35 L8.36482409,35 L8.36482409,9.296 Z M14.0168241,30.608 L20.0648241,30.608 C20.6168268,30.608 21.1448216,30.5540005 21.6488241,30.446 C22.1528266,30.3379995 22.5968222,30.1580013 22.9808241,29.906 C23.364826,29.6539987 23.6708229,29.3120022 23.8988241,28.88 C24.1268252,28.4479978 24.2408241,27.8960034 24.2408241,27.224 C24.2408241,25.9039934 23.8688278,24.9620028 23.1248241,24.398 C22.3808204,23.8339972 21.3968302,23.552 20.1728241,23.552 L14.0168241,23.552 L14.0168241,30.608 Z M38.9895298,25.712 C38.9895298,26.4560037 39.0615291,27.1819965 39.2055298,27.89 C39.3495306,28.5980035 39.5955281,29.2339972 39.9435298,29.798 C40.2915316,30.3620028 40.753527,30.8119983 41.3295298,31.148 C41.9055327,31.4840017 42.6255255,31.652 43.4895298,31.652 C44.3535342,31.652 45.0795269,31.4840017 45.6675298,31.148 C46.2555328,30.8119983 46.7235281,30.3620028 47.0715298,29.798 C47.4195316,29.2339972 47.6655291,28.5980035 47.8095298,27.89 C47.9535306,27.1819965 48.0255298,26.4560037 48.0255298,25.712 C48.0255298,24.9679963 47.9535306,24.2360036 47.8095298,23.516 C47.6655291,22.7959964 47.4195316,22.1600028 47.0715298,21.608 C46.7235281,21.0559972 46.2555328,20.6060017 45.6675298,20.258 C45.0795269,19.9099983 44.3535342,19.736 43.4895298,19.736 C42.6255255,19.736 41.9055327,19.9099983 41.3295298,20.258 C40.753527,20.6060017 40.2915316,21.0559972 39.9435298,21.608 C39.5955281,22.1600028 39.3495306,22.7959964 39.2055298,23.516 C39.0615291,24.2360036 38.9895298,24.9679963 38.9895298,25.712 Z M33.8775298,25.712 C33.8775298,24.2239926 34.1055276,22.8740061 34.5615298,21.662 C35.0175321,20.4499939 35.6655256,19.4180043 36.5055298,18.566 C37.345534,17.7139957 38.353524,17.0540023 39.5295298,16.586 C40.7055357,16.1179977 42.0255225,15.884 43.4895298,15.884 C44.9535372,15.884 46.2795239,16.1179977 47.4675298,16.586 C48.6555358,17.0540023 49.6695256,17.7139957 50.5095298,18.566 C51.349534,19.4180043 51.9975276,20.4499939 52.4535298,21.662 C52.9095321,22.8740061 53.1375298,24.2239926 53.1375298,25.712 C53.1375298,27.2000074 52.9095321,28.543994 52.4535298,29.744 C51.9975276,30.944006 51.349534,31.9699957 50.5095298,32.822 C49.6695256,33.6740043 48.6555358,34.3279977 47.4675298,34.784 C46.2795239,35.2400023 44.9535372,35.468 43.4895298,35.468 C42.0255225,35.468 40.7055357,35.2400023 39.5295298,34.784 C38.353524,34.3279977 37.345534,33.6740043 36.5055298,32.822 C35.6655256,31.9699957 35.0175321,30.944006 34.5615298,29.744 C34.1055276,28.543994 33.8775298,27.2000074 33.8775298,25.712 Z M62.2702356,25.712 C62.2702356,26.4560037 62.3422349,27.1819965 62.4862356,27.89 C62.6302363,28.5980035 62.8762339,29.2339972 63.2242356,29.798 C63.5722373,30.3620028 64.0342327,30.8119983 64.6102356,31.148 C65.1862385,31.4840017 65.9062313,31.652 66.7702356,31.652 C67.6342399,31.652 68.3602327,31.4840017 68.9482356,31.148 C69.5362385,30.8119983 70.0042339,30.3620028 70.3522356,29.798 C70.7002373,29.2339972 70.9462349,28.5980035 71.0902356,27.89 C71.2342363,27.1819965 71.3062356,26.4560037 71.3062356,25.712 C71.3062356,24.9679963 71.2342363,24.2360036 71.0902356,23.516 C70.9462349,22.7959964 70.7002373,22.1600028 70.3522356,21.608 C70.0042339,21.0559972 69.5362385,20.6060017 68.9482356,20.258 C68.3602327,19.9099983 67.6342399,19.736 66.7702356,19.736 C65.9062313,19.736 65.1862385,19.9099983 64.6102356,20.258 C64.0342327,20.6060017 63.5722373,21.0559972 63.2242356,21.608 C62.8762339,22.1600028 62.6302363,22.7959964 62.4862356,23.516 C62.3422349,24.2360036 62.2702356,24.9679963 62.2702356,25.712 Z M57.1582356,25.712 C57.1582356,24.2239926 57.3862333,22.8740061 57.8422356,21.662 C58.2982379,20.4499939 58.9462314,19.4180043 59.7862356,18.566 C60.6262398,17.7139957 61.6342297,17.0540023 62.8102356,16.586 C63.9862415,16.1179977 65.3062283,15.884 66.7702356,15.884 C68.2342429,15.884 69.5602297,16.1179977 70.7482356,16.586 C71.9362415,17.0540023 72.9502314,17.7139957 73.7902356,18.566 C74.6302398,19.4180043 75.2782333,20.4499939 75.7342356,21.662 C76.1902379,22.8740061 76.4182356,24.2239926 76.4182356,25.712 C76.4182356,27.2000074 76.1902379,28.543994 75.7342356,29.744 C75.2782333,30.944006 74.6302398,31.9699957 73.7902356,32.822 C72.9502314,33.6740043 71.9362415,34.3279977 70.7482356,34.784 C69.5602297,35.2400023 68.2342429,35.468 66.7702356,35.468 C65.3062283,35.468 63.9862415,35.2400023 62.8102356,34.784 C61.6342297,34.3279977 60.6262398,33.6740043 59.7862356,32.822 C58.9462314,31.9699957 58.2982379,30.944006 57.8422356,29.744 C57.3862333,28.543994 57.1582356,27.2000074 57.1582356,25.712 Z M87.4949414,16.388 L87.4949414,10.808 L82.3829414,10.808 L82.3829414,16.388 L79.2869414,16.388 L79.2869414,19.808 L82.3829414,19.808 L82.3829414,30.788 C82.3829414,31.7240047 82.5389398,32.4799971 82.8509414,33.056 C83.1629429,33.6320029 83.5889387,34.0759984 84.1289414,34.388 C84.6689441,34.7000016 85.2929378,34.9099995 86.0009414,35.018 C86.7089449,35.1260005 87.4589374,35.18 88.2509414,35.18 C88.7549439,35.18 89.2709387,35.1680001 89.7989414,35.144 C90.326944,35.1199999 90.8069392,35.0720004 91.2389414,35 L91.2389414,31.04 C90.9989402,31.0880002 90.7469427,31.1239999 90.4829414,31.148 C90.21894,31.1720001 89.9429428,31.184 89.6549414,31.184 C88.790937,31.184 88.2149428,31.0400014 87.9269414,30.752 C87.6389399,30.4639986 87.4949414,29.8880043 87.4949414,29.024 L87.4949414,19.808 L91.2389414,19.808 L91.2389414,16.388 L87.4949414,16.388 Z M98.9316471,28.952 L94.0716471,28.952 C94.1196474,30.2000062 94.4016445,31.2379959 94.9176471,32.066 C95.4336497,32.8940041 96.0936431,33.5599975 96.8976471,34.064 C97.7016511,34.5680025 98.619642,34.9279989 99.6516471,35.144 C100.683652,35.3600011 101.739642,35.468 102.819647,35.468 C103.875652,35.468 104.913642,35.366001 105.933647,35.162 C106.953652,34.957999 107.859643,34.6040025 108.651647,34.1 C109.443651,33.5959975 110.085645,32.9300041 110.577647,32.102 C111.06965,31.2739959 111.315647,30.2480061 111.315647,29.024 C111.315647,28.1599957 111.147649,27.4340029 110.811647,26.846 C110.475645,26.2579971 110.03165,25.766002 109.479647,25.37 C108.927644,24.973998 108.297651,24.6560012 107.589647,24.416 C106.881644,24.1759988 106.155651,23.9720008 105.411647,23.804 C104.691644,23.6359992 103.983651,23.4800007 103.287647,23.336 C102.591644,23.1919993 101.97365,23.0300009 101.433647,22.85 C100.893644,22.6699991 100.455649,22.4360014 100.119647,22.148 C99.7836454,21.8599986 99.6156471,21.4880023 99.6156471,21.032 C99.6156471,20.6479981 99.7116462,20.3420011 99.9036471,20.114 C100.095648,19.8859989 100.329646,19.7120006 100.605647,19.592 C100.881649,19.4719994 101.187645,19.3940002 101.523647,19.358 C101.859649,19.3219998 102.171646,19.304 102.459647,19.304 C103.371652,19.304 104.163644,19.4779983 104.835647,19.826 C105.50765,20.1740017 105.879647,20.8399951 105.951647,21.824 L110.811647,21.824 C110.715647,20.6719942 110.42165,19.7180038 109.929647,18.962 C109.437645,18.2059962 108.819651,17.6000023 108.075647,17.144 C107.331643,16.6879977 106.485652,16.364001 105.537647,16.172 C104.589642,15.979999 103.611652,15.884 102.603647,15.884 C101.595642,15.884 100.611652,15.9739991 99.6516471,16.154 C98.6916423,16.3340009 97.827651,16.6459978 97.0596471,17.09 C96.2916433,17.5340022 95.6736495,18.1399962 95.2056471,18.908 C94.7376448,19.6760038 94.5036471,20.659994 94.5036471,21.86 C94.5036471,22.6760041 94.6716454,23.3659972 95.0076471,23.93 C95.3436488,24.4940028 95.7876444,24.9619981 96.3396471,25.334 C96.8916499,25.7060019 97.5216436,26.0059989 98.2296471,26.234 C98.9376507,26.4620011 99.6636434,26.6599992 100.407647,26.828 C102.231656,27.2120019 103.653642,27.5959981 104.673647,27.98 C105.693652,28.3640019 106.203647,28.9399962 106.203647,29.708 C106.203647,30.1640023 106.095648,30.5419985 105.879647,30.842 C105.663646,31.1420015 105.393649,31.3819991 105.069647,31.562 C104.745646,31.7420009 104.385649,31.8739996 103.989647,31.958 C103.593645,32.0420004 103.215649,32.084 102.855647,32.084 C102.351645,32.084 101.865649,32.0240006 101.397647,31.904 C100.929645,31.7839994 100.515649,31.5980013 100.155647,31.346 C99.7956453,31.0939987 99.5016483,30.770002 99.2736471,30.374 C99.045646,29.977998 98.9316471,29.5040028 98.9316471,28.952 Z M122.068353,16.388 L122.068353,10.808 L116.956353,10.808 L116.956353,16.388 L113.860353,16.388 L113.860353,19.808 L116.956353,19.808 L116.956353,30.788 C116.956353,31.7240047 117.112351,32.4799971 117.424353,33.056 C117.736354,33.6320029 118.16235,34.0759984 118.702353,34.388 C119.242356,34.7000016 119.866349,34.9099995 120.574353,35.018 C121.282356,35.1260005 122.032349,35.18 122.824353,35.18 C123.328355,35.18 123.84435,35.1680001 124.372353,35.144 C124.900356,35.1199999 125.380351,35.0720004 125.812353,35 L125.812353,31.04 C125.572352,31.0880002 125.320354,31.1239999 125.056353,31.148 C124.792352,31.1720001 124.516354,31.184 124.228353,31.184 C123.364349,31.184 122.788354,31.0400014 122.500353,30.752 C122.212351,30.4639986 122.068353,29.8880043 122.068353,29.024 L122.068353,19.808 L125.812353,19.808 L125.812353,16.388 L122.068353,16.388 Z M129.545059,16.388 L129.545059,35 L134.657059,35 L134.657059,26.612 C134.657059,25.7719958 134.741058,24.9920036 134.909059,24.272 C135.077059,23.5519964 135.359057,22.9220027 135.755059,22.382 C136.151061,21.8419973 136.673055,21.4160016 137.321059,21.104 C137.969062,20.7919984 138.761054,20.636 139.697059,20.636 C140.00906,20.636 140.333057,20.6539998 140.669059,20.69 C141.00506,20.7260002 141.293057,20.7679998 141.533059,20.816 L141.533059,16.064 C141.125057,15.9439994 140.75306,15.884 140.417059,15.884 C139.769055,15.884 139.145062,15.979999 138.545059,16.172 C137.945056,16.364001 137.381061,16.6339983 136.853059,16.982 C136.325056,17.3300017 135.857061,17.7499975 135.449059,18.242 C135.041057,18.7340025 134.71706,19.2679971 134.477059,19.844 L134.405059,19.844 L134.405059,16.388 L129.545059,16.388 Z M144.617764,22.112 C144.689765,20.911994 144.989762,19.916004 145.517764,19.124 C146.045767,18.331996 146.71776,17.6960024 147.533764,17.216 C148.349768,16.7359976 149.267759,16.394001 150.287764,16.19 C151.307769,15.985999 152.333759,15.884 153.365764,15.884 C154.301769,15.884 155.24976,15.9499993 156.209764,16.082 C157.169769,16.2140007 158.04576,16.4719981 158.837764,16.856 C159.629768,17.2400019 160.277762,17.7739966 160.781764,18.458 C161.285767,19.1420034 161.537764,20.0479944 161.537764,21.176 L161.537764,30.86 C161.537764,31.7000042 161.585764,32.5039962 161.681764,33.272 C161.777765,34.0400038 161.945763,34.6159981 162.185764,35 L157.001764,35 C156.905764,34.7119986 156.827765,34.4180015 156.767764,34.118 C156.707764,33.8179985 156.665765,33.5120016 156.641764,33.2 C155.82576,34.0400042 154.86577,34.6279983 153.761764,34.964 C152.657759,35.3000017 151.52977,35.468 150.377764,35.468 C149.48976,35.468 148.661768,35.3600011 147.893764,35.144 C147.125761,34.9279989 146.453767,34.5920023 145.877764,34.136 C145.301762,33.6799977 144.851766,33.1040035 144.527764,32.408 C144.203763,31.7119965 144.041764,30.8840048 144.041764,29.924 C144.041764,28.8679947 144.227763,27.9980034 144.599764,27.314 C144.971766,26.6299966 145.451761,26.084002 146.039764,25.676 C146.627767,25.267998 147.299761,24.962001 148.055764,24.758 C148.811768,24.553999 149.573761,24.3920006 150.341764,24.272 C151.109768,24.1519994 151.865761,24.0560004 152.609764,23.984 C153.353768,23.9119996 154.013762,23.8040007 154.589764,23.66 C155.165767,23.5159993 155.621763,23.3060014 155.957764,23.03 C156.293766,22.7539986 156.449765,22.3520026 156.425764,21.824 C156.425764,21.2719972 156.335765,20.8340016 156.155764,20.51 C155.975763,20.1859984 155.735766,19.9340009 155.435764,19.754 C155.135763,19.5739991 154.787766,19.4540003 154.391764,19.394 C153.995762,19.3339997 153.569767,19.304 153.113764,19.304 C152.105759,19.304 151.313767,19.5199978 150.737764,19.952 C150.161762,20.3840022 149.825765,21.103995 149.729764,22.112 L144.617764,22.112 Z M156.425764,25.892 C156.209763,26.084001 155.939766,26.2339995 155.615764,26.342 C155.291763,26.4500005 154.943766,26.5399996 154.571764,26.612 C154.199763,26.6840004 153.809766,26.7439998 153.401764,26.792 C152.993762,26.8400002 152.585766,26.8999996 152.177764,26.972 C151.793762,27.0440004 151.415766,27.1399994 151.043764,27.26 C150.671763,27.3800006 150.347766,27.541999 150.071764,27.746 C149.795763,27.950001 149.573765,28.2079984 149.405764,28.52 C149.237764,28.8320016 149.153764,29.2279976 149.153764,29.708 C149.153764,30.1640023 149.237764,30.5479984 149.405764,30.86 C149.573765,31.1720016 149.801763,31.4179991 150.089764,31.598 C150.377766,31.7780009 150.713762,31.9039996 151.097764,31.976 C151.481766,32.0480004 151.877762,32.084 152.285764,32.084 C153.293769,32.084 154.073762,31.9160017 154.625764,31.58 C155.177767,31.2439983 155.585763,30.8420023 155.849764,30.374 C156.113766,29.9059977 156.275764,29.4320024 156.335764,28.952 C156.395765,28.4719976 156.425764,28.0880014 156.425764,27.8 L156.425764,25.892 Z M176.17847,31.652 C177.018474,31.652 177.720467,31.4840017 178.28447,31.148 C178.848473,30.8119983 179.304468,30.3740027 179.65247,29.834 C180.000472,29.2939973 180.246469,28.6640036 180.39047,27.944 C180.534471,27.2239964 180.60647,26.4920037 180.60647,25.748 C180.60647,25.0039963 180.528471,24.2720036 180.37247,23.552 C180.216469,22.8319964 179.958472,22.1900028 179.59847,21.626 C179.238468,21.0619972 178.776473,20.6060017 178.21247,20.258 C177.648467,19.9099983 176.958474,19.736 176.14247,19.736 C175.302466,19.736 174.600473,19.9099983 174.03647,20.258 C173.472467,20.6060017 173.016472,21.0559972 172.66847,21.608 C172.320468,22.1600028 172.074471,22.7959964 171.93047,23.516 C171.786469,24.2360036 171.71447,24.9799962 171.71447,25.748 C171.71447,26.4920037 171.792469,27.2239964 171.94847,27.944 C172.104471,28.6640036 172.356468,29.2939973 172.70447,29.834 C173.052472,30.3740027 173.514467,30.8119983 174.09047,31.148 C174.666473,31.4840017 175.362466,31.652 176.17847,31.652 Z M166.78247,16.388 L171.64247,16.388 L171.64247,18.764 L171.71447,18.764 C172.338473,17.755995 173.130465,17.0240023 174.09047,16.568 C175.050475,16.1119977 176.106464,15.884 177.25847,15.884 C178.722477,15.884 179.982465,16.1599972 181.03847,16.712 C182.094475,17.2640028 182.970467,17.9959954 183.66647,18.908 C184.362474,19.8200046 184.878468,20.8819939 185.21447,22.094 C185.550472,23.3060061 185.71847,24.5719934 185.71847,25.892 C185.71847,27.1400062 185.550472,28.3399942 185.21447,29.492 C184.878468,30.6440058 184.368474,31.6639956 183.68447,32.552 C183.000467,33.4400044 182.148475,34.1479974 181.12847,34.676 C180.108465,35.2040026 178.914477,35.468 177.54647,35.468 C176.394464,35.468 175.332475,35.2340023 174.36047,34.766 C173.388465,34.2979977 172.590473,33.6080046 171.96647,32.696 L171.89447,32.696 L171.89447,41.516 L166.78247,41.516 L166.78247,16.388 Z" id="Bootstrap"></path>
                </g>
                <text id="4" font-family="HelveticaNeue-BoldItalic, Helvetica Neue" font-size="72" font-style="italic" font-weight="bold" letter-spacing="2.56941199" fill="#371667">
                    <tspan x="302.199294" y="82">4</tspan>
                </text>
                <path d="M116.92,78.918 C116.722,79.152 116.524,79.368 116.344,79.584 L122.338,79.584 C122.302,80.286 122.284,80.916 122.248,81.474 L123.22,81.474 L123.22,82.59 L122.158,82.59 C122.122,82.914 122.086,83.202 122.05,83.472 L122.752,83.472 L122.752,84.426 L121.87,84.426 C121.798,84.696 121.708,84.912 121.636,85.056 L122.266,85.524 C121.33,86.046 120.376,86.496 119.368,86.874 L123.148,86.604 C123.832,86.244 124.516,85.848 125.218,85.452 L126.37,86.226 C124.498,87.36 122.464,88.278 120.232,88.962 C122.446,88.854 124.624,88.692 126.748,88.476 C126.37,88.152 125.974,87.846 125.578,87.54 L126.73,86.802 C128.206,87.918 129.34,88.89 130.132,89.718 L128.944,90.546 C128.62,90.186 128.26,89.826 127.882,89.466 C126.334,89.574 124.876,89.682 123.49,89.79 L123.49,91.896 C123.49,92.886 122.932,93.39 121.852,93.39 L120.322,93.39 L120.016,92.004 C120.484,92.058 120.934,92.094 121.366,92.094 C121.672,92.094 121.834,91.896 121.834,91.536 L121.834,89.898 C119.764,90.006 117.838,90.096 116.074,90.168 L115.768,88.854 C116.182,88.89 116.596,88.908 117.028,88.908 C118.306,88.62 119.656,88.188 121.06,87.594 C119.62,87.63 118.216,87.666 116.83,87.738 L116.596,86.658 C117.136,86.658 117.532,86.604 117.748,86.532 C118.342,86.316 118.954,86.046 119.584,85.74 C119.476,85.74 119.368,85.758 119.278,85.758 L118.648,85.758 L118.342,84.894 L119.188,84.894 C119.836,84.876 120.268,84.786 120.466,84.606 C120.502,84.57 120.538,84.498 120.574,84.426 L115.12,84.426 C115.282,83.778 115.408,83.166 115.516,82.554 L114.346,82.554 L114.346,81.456 L115.678,81.456 L115.786,80.142 C115.552,80.358 115.318,80.556 115.084,80.736 L114.202,79.656 C115.192,78.936 116.056,77.946 116.776,76.668 L118.198,76.974 C118.054,77.244 117.91,77.496 117.766,77.73 L123.004,77.73 L123.004,78.918 L116.92,78.918 Z M116.92,82.428 C116.848,82.788 116.794,83.148 116.722,83.472 L118.756,83.472 C118.414,83.238 118.09,83.058 117.766,82.932 L118.126,82.428 L116.92,82.428 Z M119.44,83.472 L120.772,83.472 C120.808,83.166 120.826,82.824 120.862,82.428 L118.432,82.428 C118.882,82.608 119.296,82.842 119.674,83.112 L119.44,83.472 Z M120.916,81.564 L120.97,80.556 L118.594,80.556 C119.08,80.772 119.512,81.006 119.908,81.294 L119.728,81.564 L120.916,81.564 Z M118.396,80.556 L117.118,80.556 C117.082,80.898 117.064,81.24 117.028,81.564 L118.918,81.564 C118.612,81.384 118.324,81.222 118.036,81.096 L118.396,80.556 Z M125.236,79.692 C124.768,80.394 124.228,81.042 123.598,81.618 L122.716,80.43 C123.796,79.404 124.516,78.162 124.912,76.686 L126.46,76.938 C126.316,77.424 126.154,77.892 125.974,78.324 L130.546,78.324 L130.546,79.692 L129.394,79.692 C129.07,80.952 128.548,82.032 127.828,82.896 C128.692,83.472 129.682,83.94 130.798,84.3 L129.916,85.596 C128.71,85.146 127.666,84.588 126.802,83.922 C125.938,84.606 124.876,85.128 123.652,85.452 L122.878,84.21 C124.012,83.922 124.948,83.508 125.704,82.932 C125.182,82.392 124.75,81.798 124.39,81.186 L125.452,80.574 C125.812,81.096 126.226,81.564 126.694,81.996 C127.234,81.312 127.648,80.556 127.918,79.692 L125.236,79.692 Z M125.398,90.114 C127.234,90.636 128.908,91.284 130.42,92.058 L129.646,93.264 C128.026,92.418 126.352,91.752 124.642,91.248 L125.398,90.114 Z M119.134,90.222 L120.016,91.23 C118.666,92.04 117.01,92.724 115.066,93.264 L114.454,91.932 C116.362,91.5 117.91,90.924 119.134,90.222 Z M139.984706,77.298 L139.984706,82.104 L140.614706,82.104 L140.614706,85.11 L139.786706,85.11 L139.786706,91.878 C139.786706,92.76 139.282706,93.21 138.292706,93.21 L137.104706,93.21 L136.726706,91.842 C137.122706,91.878 137.500706,91.896 137.842706,91.896 C138.166706,91.896 138.346706,91.716 138.346706,91.374 L138.346706,90.114 C137.716706,90.33 137.050706,90.546 136.348706,90.744 L136.060706,89.754 C135.934706,91.194 135.556706,92.382 134.908706,93.318 L133.774706,92.274 C134.368706,91.428 134.674706,90.348 134.692706,89.052 L134.692706,85.164 L133.846706,85.164 L133.846706,82.104 L134.512706,82.104 L134.512706,77.298 L139.984706,77.298 Z M136.078706,89.43 C136.906706,89.232 137.662706,89.016 138.346706,88.782 L138.346706,85.758 L136.096706,85.758 L136.096706,86.712 C136.798706,86.838 137.482706,87.018 138.148706,87.234 L137.698706,88.35 C137.158706,88.152 136.636706,87.99 136.096706,87.864 L136.096706,88.926 C136.096706,89.106 136.078706,89.268 136.078706,89.43 Z M135.232706,84.498 L139.228706,84.498 L139.228706,83.364 L135.232706,83.364 L135.232706,84.498 Z M135.916706,82.104 L136.654706,82.104 L136.654706,79.728 L138.598706,79.728 L138.598706,78.594 L135.916706,78.594 L135.916706,82.104 Z M137.752706,82.104 L138.598706,82.104 L138.598706,80.898 L137.752706,80.898 L137.752706,82.104 Z M141.280706,78 L143.368706,78 L143.368706,76.794 L144.826706,76.794 L144.826706,78 L145.906706,78 L145.906706,76.794 L147.346706,76.794 L147.346706,78 L149.470706,78 L149.470706,83.634 L141.280706,83.634 L141.280706,78 Z M148.174706,82.482 L148.174706,81.402 L147.022706,81.402 L147.022706,82.482 L148.174706,82.482 Z M145.906706,82.482 L145.906706,81.402 L144.826706,81.402 L144.826706,82.482 L145.906706,82.482 Z M143.710706,82.482 L143.710706,81.402 L142.576706,81.402 L142.576706,82.482 L143.710706,82.482 Z M142.576706,80.34 L143.710706,80.34 L143.710706,79.242 L142.576706,79.242 L142.576706,80.34 Z M144.826706,79.242 L144.826706,80.34 L145.906706,80.34 L145.906706,79.242 L144.826706,79.242 Z M147.022706,79.242 L147.022706,80.34 L148.174706,80.34 L148.174706,79.242 L147.022706,79.242 Z M140.830706,84.39 L140.830706,85.722 L149.884706,85.722 L149.884706,84.39 L140.830706,84.39 Z M141.586706,86.496 L149.074706,86.496 L149.074706,90.132 L147.994706,90.132 L147.652706,91.41 L150.010706,91.41 L150.010706,92.832 L140.452706,92.832 L140.452706,91.41 L143.026706,91.41 L142.630706,90.132 L141.586706,90.132 L141.586706,86.496 Z M144.538706,91.41 L146.158706,91.41 L146.500706,90.132 L144.142706,90.132 L144.538706,91.41 Z M147.616706,88.872 L147.616706,87.684 L143.044706,87.684 L143.044706,88.872 L147.616706,88.872 Z M160.187412,76.668 L161.951412,76.668 L161.951412,79.782 L168.359412,79.782 L168.359412,88.476 L166.649412,88.476 L166.649412,87.45 L161.951412,87.45 L161.951412,93.48 L160.187412,93.48 L160.187412,87.45 L155.507412,87.45 L155.507412,88.476 L153.797412,88.476 L153.797412,79.782 L160.187412,79.782 L160.187412,76.668 Z M155.507412,85.776 L160.187412,85.776 L160.187412,81.456 L155.507412,81.456 L155.507412,85.776 Z M161.951412,85.776 L166.649412,85.776 L166.649412,81.456 L161.951412,81.456 L161.951412,85.776 Z M172.416117,79.638 L179.670117,79.638 C179.202117,78.774 178.626117,77.964 177.942117,77.19 L179.652117,76.56 C180.300117,77.424 180.912117,78.45 181.470117,79.638 L188.292117,79.638 L188.292117,81.33 L185.538117,81.33 C184.674117,84.066 183.396117,86.352 181.704117,88.206 C183.576117,89.736 185.916117,91.014 188.688117,92.022 L187.734117,93.462 C184.836117,92.382 182.424117,91.032 180.516117,89.412 C178.482117,91.212 175.980117,92.544 173.010117,93.408 L172.092117,91.896 C175.008117,91.14 177.402117,89.952 179.310117,88.314 C177.330117,86.334 175.944117,83.994 175.170117,81.33 L172.416117,81.33 L172.416117,79.638 Z M176.808117,81.33 C177.564117,83.544 178.788117,85.488 180.498117,87.144 C181.956117,85.542 183.054117,83.598 183.774117,81.33 L176.808117,81.33 Z M205.596823,76.866 C202.104823,77.658 197.784823,78.072 192.654823,78.072 L193.194823,79.62 C195.318823,79.62 197.280823,79.548 199.116823,79.422 L199.116823,81.888 L193.032823,81.888 L193.032823,83.544 L199.116823,83.544 L199.116823,86.1 L191.538823,86.1 L191.538823,87.738 L199.116823,87.738 L199.116823,91.014 C199.116823,91.428 198.864823,91.644 198.360823,91.644 C197.532823,91.644 196.668823,91.608 195.768823,91.554 L196.164823,93.21 L198.954823,93.21 C200.196823,93.21 200.826823,92.616 200.826823,91.428 L200.826823,87.738 L207.756823,87.738 L207.756823,86.1 L200.826823,86.1 L200.826823,83.544 L206.406823,83.544 L206.406823,81.888 L200.826823,81.888 L200.826823,79.278 C202.950823,79.062 204.822823,78.738 206.442823,78.306 L205.596823,76.866 Z M216.115529,78.99 L213.937529,78.99 L213.937529,83.508 L216.115529,83.508 L216.115529,78.99 Z M216.115529,85.164 L213.937529,85.164 L213.937529,93.282 L212.263529,93.282 L212.263529,85.164 L210.769529,85.164 L210.769529,83.508 L212.263529,83.508 L212.263529,77.334 L225.727529,77.334 L225.727529,83.508 L227.131529,83.508 L227.131529,85.164 L225.727529,85.164 L225.727529,91.464 C225.727529,92.652 225.133529,93.264 223.981529,93.264 L222.451529,93.264 L222.019529,91.608 L223.441529,91.68 C223.837529,91.68 224.035529,91.482 224.035529,91.104 L224.035529,85.164 L221.569529,85.164 L221.569529,92.472 L219.931529,92.472 L219.931529,85.164 L217.753529,85.164 L217.753529,92.472 L216.115529,92.472 L216.115529,85.164 Z M217.753529,83.508 L219.931529,83.508 L219.931529,78.99 L217.753529,78.99 L217.753529,83.508 Z M221.569529,83.508 L224.035529,83.508 L224.035529,78.99 L221.569529,78.99 L221.569529,83.508 Z" id="繁體中文手冊" fill="#371667"></path>
                <g id="Group-3">
                    <path d="M46.804,21.804 L40.324,21.804 L40.324,29.256 L45.904,29.256 L45.904,44.772 L42.88,44.772 L42.88,42.036 L35.464,42.036 L35.464,44.808 L32.44,44.808 L32.44,29.256 L37.228,29.256 L37.228,11.724 L40.324,11.724 L40.324,20.184 L46.804,20.184 L46.804,21.804 Z M15.484,33.288 C17.86,33.252 20.236,33.18 22.54,33.036 L22.54,30.156 L16.312,30.156 L16.312,28.536 L22.54,28.536 L22.54,25.692 L16.6,25.692 L16.564,13.74 L31.576,13.74 L31.576,25.692 L25.564,25.692 L25.564,28.536 L31.54,28.536 L31.54,30.156 L25.564,30.156 L25.564,32.82 C27.652,32.676 29.668,32.46 31.54,32.208 L31.828,33.396 C27.184,34.8 20.56,36.024 16.204,36.528 L15.484,33.288 Z M19.3,24.072 L22.9,24.072 L22.9,15.36 L19.3,15.36 L19.3,24.072 Z M25.276,15.36 L25.276,24.072 L28.84,24.072 L28.84,18.096 C28.336,19.788 27.58,21.624 26.788,23.028 L25.672,22.704 C26.14,20.688 26.428,18.312 26.644,16.512 L28.84,17.088 L28.84,15.36 L25.276,15.36 Z M19.732,16.764 L20.812,16.476 C21.676,18.312 22.216,20.256 22.612,22.308 L20.272,22.704 C20.164,20.796 19.984,18.744 19.732,16.764 Z M42.88,30.876 L35.464,30.876 L35.464,40.416 L42.88,40.416 L42.88,30.876 Z M27.94,35.52 L28.948,35.016 C30.064,36.312 31.252,38.364 32.008,40.092 L29.632,41.172 C29.164,39.336 28.552,37.32 27.94,35.52 Z M24.484,36.276 L25.636,35.952 C26.824,38.076 27.616,40.128 28.12,42.036 L25.456,42.72 C25.24,40.632 24.988,38.796 24.484,36.276 Z M20.992,37.104 C21.1,39.48 21.064,41.964 21.028,44.052 L23.836,43.764 C23.548,41.604 23.044,39.372 22.252,36.96 L20.992,37.104 Z M14.98,43.98 L18.04,45.096 C18.688,42.972 19.012,40.308 19.12,37.5 L17.896,37.212 C17.104,40.164 16.24,42.072 14.98,43.98 Z M64.012,37.608 L64.012,24.792 L69.088,24.792 L69.088,23.172 L64.012,23.172 L64.012,11.796 L60.772,11.796 L60.772,38.508 L57.856,39.264 L57.856,17.448 L54.76,17.448 L54.76,39.948 C53.428,40.236 52.168,40.452 51.124,40.596 L52.492,44.34 C56.992,43.044 65.452,39.768 69.232,37.176 L68.764,35.988 C67.54,36.492 65.848,37.068 64.012,37.608 Z M81.94,33.9 L80.644,33.9 C80.824,40.56 81.004,41.172 76.828,41.172 C73.444,41.172 73.084,40.632 73.084,38.184 L73.084,27.996 C76.756,26.052 79.708,23.46 82.3,20.58 L78.952,18.204 C77.404,20.976 75.604,23.496 73.084,25.98 L73.084,11.832 L69.844,11.796 L69.844,38.436 C69.844,43.26 70.06,44.232 77.08,44.268 C82.948,44.304 84.64,43.332 81.94,33.9 Z M29.308,54.056 L29.308,64.352 L19.768,64.352 L19.768,86.024 L16.6,86.024 L16.6,54.056 L29.308,54.056 Z M32.656,54.056 L45.184,54.056 L45.184,81.74 C45.184,86.132 41.764,86.996 36.616,83.576 L37.048,82.316 C41.008,83.432 42.016,83.252 42.016,81.092 L42.016,64.352 L32.656,64.352 L32.656,54.056 Z M26.284,58.304 L26.284,55.676 L19.768,55.676 L19.768,58.304 L26.284,58.304 Z M42.016,58.304 L42.016,55.676 L35.68,55.676 L35.68,58.304 L42.016,58.304 Z M26.284,62.732 L26.284,59.924 L19.768,59.924 L19.768,62.732 L26.284,62.732 Z M42.016,62.732 L42.016,59.924 L35.68,59.924 L35.68,62.732 L42.016,62.732 Z M41.152,75.116 L35.824,75.116 L35.824,84.368 L32.8,84.368 L32.8,75.116 L29.056,75.116 C28.48,80.444 25.42,83.72 21.928,85.232 L21.172,84.152 C23.8,82.208 25.672,79.76 26.032,75.116 L20.92,75.116 L20.92,73.496 L26.104,73.496 L26.104,68.852 L22,68.852 L22,67.232 L40.036,67.232 L40.036,68.852 L35.824,68.852 L35.824,73.496 L41.152,73.496 L41.152,75.116 Z M29.164,73.496 L32.8,73.496 L32.8,68.852 L29.128,68.852 L29.164,73.136 L29.164,73.496 Z M67.252,68.024 L56.596,68.024 C56.38,75.908 55.336,81.776 51.808,85.448 L50.836,84.62 C53.392,79.832 53.464,75.692 53.464,64.604 L53.464,55.604 L56.308,56.396 C59.512,55.496 62.608,54.056 65.128,52.508 L67.54,55.532 C64.84,56.432 61.312,57.188 56.632,57.764 L56.632,60.248 L67.252,60.248 L67.252,68.024 Z M76.432,76.88 C78.088,79.22 80.32,81.164 83.38,82.856 L81.292,86.06 C78.448,84.188 76.288,82.028 74.704,79.364 C72.508,82.1 69.556,84.26 65.668,86.132 L64.948,85.124 C68.728,82.748 71.464,80.012 73.372,76.664 C72.112,73.604 71.428,69.968 71.14,65.576 C70.24,67.268 69.232,68.744 68.08,70.04 L67.072,69.248 C69.412,65.396 70.708,60.392 71.14,52.76 L74.488,53.3 C74.164,56.072 73.66,58.484 73.048,60.608 L82.732,60.608 L82.732,62.228 L80.14,62.228 C79.744,68.312 78.628,73.064 76.432,76.88 Z M64.3,61.868 L56.632,61.868 L56.632,66.404 L64.3,66.404 L64.3,61.868 Z M72.292,62.912 C72.616,67.304 73.336,70.904 74.704,73.928 C76.072,70.616 76.756,66.8 77.008,62.228 L72.544,62.228 C72.472,62.444 72.4,62.696 72.292,62.912 Z M67.324,71.408 L67.324,81.632 L60.124,81.632 L60.124,84.8 L57.244,84.8 L57.244,71.408 L67.324,71.408 Z M64.444,80.012 L64.444,73.028 L60.124,73.028 L60.124,80.012 L64.444,80.012 Z" id="點此-開啟" fill="#371667"></path>
                    <rect id="Rectangle" stroke="#371667" stroke-width="1.5" x="0.75" y="0.75" width="96" height="96" rx="15.5"></rect>
                </g>
            </g>
        </g>
    </g>
</svg>